solid 1
 facet normal        1 -8.07707e-07        0
  outer loop
   vertex -26.4807    5.215  1.58151
   vertex -26.4807  2.85357  1.32795
   vertex -26.4807    5.215 0.925256
  endloop
 endfacet
 facet normal        1 -7.63157e-07        0
  outer loop
   vertex -26.4807    8.125 0.619006
   vertex -26.4807   43.115 0.619006
   vertex -26.4807    8.125  2.89401
  endloop
 endfacet
 facet normal        1 -8.53446e-07 1.69761e-07
  outer loop
   vertex -26.4807  2.96195  1.49016
   vertex -26.4807    5.215  1.58151
   vertex -26.4807  3.00001  1.68151
  endloop
 endfacet
 facet normal        1 -8.70134e-07 5.81405e-07
  outer loop
   vertex -26.4807  2.85357  1.32795
   vertex -26.4807    5.215  1.58151
   vertex -26.4807  2.96195  1.49016
  endloop
 endfacet
 facet normal        1 -6.4348e-07 9.63037e-07
  outer loop
   vertex -26.4807    5.215 0.925256
   vertex -26.4807  2.85357  1.32795
   vertex -26.4807  2.69136  1.21957
  endloop
 endfacet
 facet normal        1 -7.54173e-07 -6.54949e-08
  outer loop
   vertex -26.4807  5.21501  7.28044
   vertex -26.4807    8.125  2.89401
   vertex -26.4807   43.115  7.69401
  endloop
 endfacet
 facet normal        1 -7.63157e-07 4.11479e-13
  outer loop
   vertex -26.4807    8.125  2.89401
   vertex -26.4807   43.115 0.619006
   vertex -26.4807   43.115  7.69401
  endloop
 endfacet
 facet normal        1 -6.55447e-07 6.41266e-13
  outer loop
   vertex -26.4807    5.215  2.89401
   vertex -26.4807    8.125  2.89401
   vertex -26.4807  5.21501  7.28044
  endloop
 endfacet
 facet normal        1 -7.54887e-07 -5.22225e-12
  outer loop
   vertex -26.4807    5.215  7.69401
   vertex -26.4807  5.21501  7.28044
   vertex -26.4807   43.115  7.69401
  endloop
 endfacet
 facet normal        1 -8.80991e-07 8.61931e-13
  outer loop
   vertex -26.4807  5.21501  7.28044
   vertex -26.4807    0.885  7.28044
   vertex -26.4807    5.215  2.89401
  endloop
 endfacet
 facet normal        1 -6.36254e-07 -3.19867e-06
  outer loop
   vertex -26.4807  2.50001  2.18151
   vertex -26.4807  2.69136  2.14345
   vertex -26.4807    5.215  2.23776
  endloop
 endfacet
 facet normal        1 -7.63895e-07 -5.10418e-07
  outer loop
   vertex -26.4807  2.85357  2.03506
   vertex -26.4807  2.96195  1.87285
   vertex -26.4807    5.215  2.23776
  endloop
 endfacet
 facet normal        1 -8.68913e-07 -1.72837e-07
  outer loop
   vertex -26.4807  3.00001  1.68151
   vertex -26.4807    5.215  1.58151
   vertex -26.4807  2.96195  1.87285
  endloop
 endfacet
 facet normal        1 -8.80992e-07 -6.40136e-13
  outer loop
   vertex -26.4807    0.885 0.269006
   vertex -26.4807    5.215 0.269006
   vertex -26.4807    5.215 0.925256
  endloop
 endfacet
 facet normal        1 -4.76451e-07 2.39528e-06
  outer loop
   vertex -26.4807  2.69136  1.21957
   vertex -26.4807  2.50001  1.18151
   vertex -26.4807    5.215 0.925256
  endloop
 endfacet
 facet normal        1 -7.68022e-06 1.15028e-05
  outer loop
   vertex -26.4807    0.885 0.269006
   vertex -26.4807  2.50001  1.18151
   vertex -26.4807  2.30867  1.21957
  endloop
 endfacet
 facet normal        1        0        0
  outer loop
   vertex -26.4807  2.03807  1.49016
   vertex -26.4807    0.885 0.269006
   vertex -26.4807  2.14646  1.32795
  endloop
 endfacet
 facet normal        1        0        0
  outer loop
   vertex -26.4807  2.30867  1.21957
   vertex -26.4807  2.14646  1.32795
   vertex -26.4807    0.885 0.269006
  endloop
 endfacet
 facet normal        1        0        0
  outer loop
   vertex -26.4807  2.00001  1.68151
   vertex -26.4807    0.885 0.269006
   vertex -26.4807  2.03807  1.49016
  endloop
 endfacet
 facet normal        1 -7.71014e-07 -7.25644e-07
  outer loop
   vertex -26.4807    5.215 0.925256
   vertex -26.4807  2.50001  1.18151
   vertex -26.4807    0.885 0.269006
  endloop
 endfacet
 facet normal        1 -1.22488e-06 -3.39465e-07
  outer loop
   vertex -26.4807    5.215  2.89401
   vertex -26.4807    0.885  7.28044
   vertex -26.4807  2.30867  2.14345
  endloop
 endfacet
 facet normal        1 -3.89838e-05 0.000145871
  outer loop
   vertex -26.4807  2.50001  2.18151
   vertex -26.4807    5.215  2.89401
   vertex -26.4807  2.30867  2.14345
  endloop
 endfacet
 facet normal        1        0        0
  outer loop
   vertex -26.4807  2.03807  1.87285
   vertex -26.4807    0.885 0.269006
   vertex -26.4807  2.00001  1.68151
  endloop
 endfacet
 facet normal        1        0        0
  outer loop
   vertex -26.4807  2.30867  2.14345
   vertex -26.4807    0.885  7.28044
   vertex -26.4807  2.14646  2.03506
  endloop
 endfacet
 facet normal        1        0       -0
  outer loop
   vertex -26.4807  2.03807  1.87285
   vertex -26.4807  2.14646  2.03506
   vertex -26.4807    0.885  7.28044
  endloop
 endfacet
 facet normal        1        0        0
  outer loop
   vertex -26.4807  2.03807  1.87285
   vertex -26.4807    0.885  7.28044
   vertex -26.4807    0.885 0.269006
  endloop
 endfacet
 facet normal        1 -7.02525e-07 -5.10461e-13
  outer loop
   vertex -26.4807  2.50001  2.18151
   vertex -26.4807    5.215  2.23776
   vertex -26.4807    5.215  2.89401
  endloop
 endfacet
 facet normal        1 -8.46563e-07 -6.1512e-13
  outer loop
   vertex -26.4807    5.215  1.58151
   vertex -26.4807    5.215  2.23776
   vertex -26.4807  2.96195  1.87285
  endloop
 endfacet
 facet normal        1 -7.15759e-07 -1.07121e-06
  outer loop
   vertex -26.4807  2.69136  2.14345
   vertex -26.4807  2.85357  2.03506
   vertex -26.4807    5.215  2.23776
  endloop
 endfacet
 facet normal       -0        0        1
  outer loop
   vertex -26.4807   43.115 0.619006
   vertex -24.7507    8.125 0.619006
   vertex -24.7507   43.115 0.619006
  endloop
 endfacet
 facet normal        0        0        1
  outer loop
   vertex -24.7507    8.125 0.619006
   vertex -26.4807   43.115 0.619006
   vertex -26.4807    8.125 0.619006
  endloop
 endfacet
 facet normal -8.1725e-07       -1       -0
  outer loop
   vertex -30.0019  5.21501 0.269006
   vertex -30.0019  5.21501 -7.00599
   vertex -24.7507    5.215 0.069006
  endloop
 endfacet
 facet normal -7.90535e-07       -1 -1.98283e-08
  outer loop
   vertex -24.7507    5.215 0.069006
   vertex -30.0019  5.21501 -7.00599
   vertex -11.4807  5.21499 0.069006
  endloop
 endfacet
 facet normal -8.12516e-07       -1 1.24306e-07
  outer loop
   vertex -30.0019  5.21501 0.269006
   vertex -24.7507    5.215 0.069006
   vertex -26.4807    5.215 0.269006
  endloop
 endfacet
 facet normal        0       -1 -5.44957e-07
  outer loop
   vertex -26.4807    5.215 0.269006
   vertex -24.7507    5.215  2.89401
   vertex -26.4807    5.215  2.89401
  endloop
 endfacet
 facet normal -8.26886e-07       -1       -0
  outer loop
   vertex -24.7507    5.215  2.89401
   vertex -26.4807    5.215 0.269006
   vertex -24.7507    5.215 0.069006
  endloop
 endfacet
 facet normal -8.65526e-07       -1 -3.19899e-08
  outer loop
   vertex -7.08072  5.21499 0.269006
   vertex -11.4807  5.21499 0.069006
   vertex  -3.5063  5.21498 -7.00599
  endloop
 endfacet
 facet normal -8.09858e-07       -1 3.07551e-08
  outer loop
   vertex  -3.5063  5.21498 -7.00599
   vertex -11.4807  5.21499 0.069006
   vertex -30.0019  5.21501 -7.00599
  endloop
 endfacet
 facet normal -8.00417e-07       -1        0
  outer loop
   vertex -7.08072  5.21499 0.269006
   vertex  -3.5063  5.21498 -7.00599
   vertex  -3.5063  5.21498 0.269006
  endloop
 endfacet
 facet normal -7.58608e-07       -1 1.36239e-06
  outer loop
   vertex -11.4807  5.21499 0.619006
   vertex -7.08072  5.21499 0.269006
   vertex -7.08072  5.21499 0.619006
  endloop
 endfacet
 facet normal -8.6698e-07       -1        0
  outer loop
   vertex -7.08072  5.21499 0.269006
   vertex -11.4807  5.21499 0.619006
   vertex -11.4807  5.21499 0.069006
  endloop
 endfacet
 facet normal        0       -1 -6.91792e-06
  outer loop
   vertex -30.0019  5.21501  7.28044
   vertex -26.4807  5.21501  7.28044
   vertex -26.4807    5.215  7.69401
  endloop
 endfacet
 facet normal -8.14095e-07       -1 1.34421e-08
  outer loop
   vertex -30.0019  5.21501  7.28044
   vertex -26.4807    5.215  7.69401
   vertex -25.8247    5.215   11.954
  endloop
 endfacet
 facet normal -7.99055e-07       -1        0
  outer loop
   vertex -30.0019  5.21501  7.28044
   vertex -25.8247    5.215   11.954
   vertex -30.0019  5.21501  15.6139
  endloop
 endfacet
 facet normal -7.26812e-07       -1       -0
  outer loop
   vertex -25.8247    5.215   11.954
   vertex -26.4807    5.215  7.69401
   vertex -25.8247    5.215  7.69401
  endloop
 endfacet
 facet normal -7.90876e-07       -1 9.33567e-09
  outer loop
   vertex -30.0019  5.21501  15.6139
   vertex -25.8247    5.215   11.954
   vertex -7.73697  5.21499   11.954
  endloop
 endfacet
 facet normal -4.00209e-07       -1 7.15256e-06
  outer loop
   vertex -7.08072  5.21499  6.04401
   vertex -7.08072  5.21499  5.84401
   vertex  -3.5063  5.21498  5.84401
  endloop
 endfacet
 facet normal -7.96336e-07       -1 7.2941e-08
  outer loop
   vertex -7.08072  5.21499  6.04401
   vertex  -3.5063  5.21498  5.84401
   vertex -7.73697  5.21499   11.954
  endloop
 endfacet
 facet normal -1.45323e-06       -1        0
  outer loop
   vertex -7.08072  5.21499  6.04401
   vertex -7.73697  5.21499   11.954
   vertex -7.73697  5.21499  6.04401
  endloop
 endfacet
 facet normal -9.01679e-07       -1        0
  outer loop
   vertex -7.73697  5.21499   11.954
   vertex  -3.5063  5.21498  5.84401
   vertex  -3.5063  5.21498  15.6139
  endloop
 endfacet
 facet normal -8.09858e-07       -1 -1.0614e-07
  outer loop
   vertex -7.73697  5.21499   11.954
   vertex  -3.5063  5.21498  15.6139
   vertex -30.0019  5.21501  15.6139
  endloop
 endfacet
 facet normal        0        0       -1
  outer loop
   vertex  -3.5063  5.21498 -7.00599
   vertex -30.0019  5.21501 -7.00599
   vertex -30.0019   45.115 -7.00599
  endloop
 endfacet
 facet normal        0        0       -1
  outer loop
   vertex -30.0019   45.115 -7.00599
   vertex -3.50627   45.115 -7.00599
   vertex  -3.5063  5.21498 -7.00599
  endloop
 endfacet
 facet normal       -1 9.68674e-07 6.47248e-07
  outer loop
   vertex -30.0019  2.03808  1.49016
   vertex -30.0019  2.14646  1.32795
   vertex -30.0019    0.885 0.269006
  endloop
 endfacet
 facet normal       -1 6.70118e-07 1.0029e-06
  outer loop
   vertex -30.0019  2.30868  1.21957
   vertex -30.0019    0.885 0.269006
   vertex -30.0019  2.14646  1.32795
  endloop
 endfacet
 facet normal       -1 1.36631e-06 2.71777e-07
  outer loop
   vertex -30.0019  2.00002  1.68151
   vertex -30.0019  2.03808  1.49016
   vertex -30.0019    0.885 0.269006
  endloop
 endfacet
 facet normal       -1 3.07515e-07 1.54598e-06
  outer loop
   vertex -30.0019    0.885 0.269006
   vertex -30.0019  2.30868  1.21957
   vertex -30.0019  2.50002  1.18151
  endloop
 endfacet
 facet normal       -1 2.61194e-07 -1.31311e-06
  outer loop
   vertex -30.0019  2.50002  1.18151
   vertex -30.0019  2.69136  1.21957
   vertex -30.0019  5.21501 0.269006
  endloop
 endfacet
 facet normal       -1 8.80991e-07 5.30995e-07
  outer loop
   vertex -30.0019  5.21501 0.269006
   vertex -30.0019    0.885 0.269006
   vertex -30.0019  2.50002  1.18151
  endloop
 endfacet
 facet normal       -1 1.65414e-06        0
  outer loop
   vertex -30.0019    0.885  7.28044
   vertex -30.0019  2.03808  1.87285
   vertex -30.0019    0.885 0.269006
  endloop
 endfacet
 facet normal       -1 2.28684e-06 -4.54881e-07
  outer loop
   vertex -30.0019  2.00002  1.68151
   vertex -30.0019    0.885 0.269006
   vertex -30.0019  2.03808  1.87285
  endloop
 endfacet
 facet normal       -1 4.00172e-07 -2.67387e-07
  outer loop
   vertex -30.0019  2.14646  2.03506
   vertex -30.0019  2.03808  1.87285
   vertex -30.0019    0.885  7.28044
  endloop
 endfacet
 facet normal       -1 6.99967e-08 -3.51898e-07
  outer loop
   vertex -30.0019    0.885  7.28044
   vertex -30.0019  2.50002  2.18151
   vertex -30.0019  2.30868  2.14345
  endloop
 endfacet
 facet normal       -1 2.09329e-07 -3.13283e-07
  outer loop
   vertex -30.0019    0.885  7.28044
   vertex -30.0019  2.30868  2.14345
   vertex -30.0019  2.14646  2.03506
  endloop
 endfacet
 facet normal       -1 8.80991e-07 -9.50264e-08
  outer loop
   vertex -30.0019  5.21501  7.28044
   vertex -30.0019  2.50002  2.18151
   vertex -30.0019    0.885  7.28044
  endloop
 endfacet
 facet normal       -1 6.21488e-07 -4.15266e-07
  outer loop
   vertex -30.0019  5.21501 0.269006
   vertex -30.0019  2.85357  1.32795
   vertex -30.0019  2.96196  1.49016
  endloop
 endfacet
 facet normal       -1 7.64176e-07 -1.52004e-07
  outer loop
   vertex -30.0019  5.21501 0.269006
   vertex -30.0019  2.96196  1.49016
   vertex -30.0019  3.00002  1.68151
  endloop
 endfacet
 facet normal       -1 8.12655e-07        0
  outer loop
   vertex -30.0019  5.21501 0.269006
   vertex -30.0019   45.115 -7.00599
   vertex -30.0019  5.21501 -7.00599
  endloop
 endfacet
 facet normal       -1 9.86206e-07 1.96168e-07
  outer loop
   vertex -30.0019  2.96196  1.87285
   vertex -30.0019  5.21501 0.269006
   vertex -30.0019  3.00002  1.68151
  endloop
 endfacet
 facet normal       -1 4.83331e-07 -7.23355e-07
  outer loop
   vertex -30.0019  2.69136  1.21957
   vertex -30.0019  2.85357  1.32795
   vertex -30.0019  5.21501 0.269006
  endloop
 endfacet
 facet normal       -1 8.12655e-07        0
  outer loop
   vertex -30.0019   45.115 -7.00599
   vertex -30.0019  5.21501 0.269006
   vertex -30.0019  5.21501  7.28044
  endloop
 endfacet
 facet normal       -1 1.61449e-06 1.07877e-06
  outer loop
   vertex -30.0019  2.85357  2.03506
   vertex -30.0019  5.21501 0.269006
   vertex -30.0019  2.96196  1.87285
  endloop
 endfacet
 facet normal       -1 1.86781e-07 2.79537e-07
  outer loop
   vertex -30.0019  5.21501  7.28044
   vertex -30.0019  2.85357  2.03506
   vertex -30.0019  2.69136  2.14345
  endloop
 endfacet
 facet normal       -1 8.12655e-07        0
  outer loop
   vertex -30.0019   45.115  15.6139
   vertex -30.0019  5.21501  7.28044
   vertex -30.0019  5.21501  15.6139
  endloop
 endfacet
 facet normal       -1 8.07707e-07        0
  outer loop
   vertex -30.0019  5.21501  7.28044
   vertex -30.0019  5.21501 0.269006
   vertex -30.0019  2.85357  2.03506
  endloop
 endfacet
 facet normal       -1 8.12655e-07        0
  outer loop
   vertex -30.0019  5.21501  7.28044
   vertex -30.0019   45.115  15.6139
   vertex -30.0019   45.115 -7.00599
  endloop
 endfacet
 facet normal       -1 6.72808e-08 3.38244e-07
  outer loop
   vertex -30.0019  2.69136  2.14345
   vertex -30.0019  2.50002  2.18151
   vertex -30.0019  5.21501  7.28044
  endloop
 endfacet
 facet normal        0        0        1
  outer loop
   vertex -30.0019   45.115  15.6139
   vertex  -3.5063  5.21498  15.6139
   vertex -3.50627   45.115  15.6139
  endloop
 endfacet
 facet normal        0        0        1
  outer loop
   vertex  -3.5063  5.21498  15.6139
   vertex -30.0019   45.115  15.6139
   vertex -30.0019  5.21501  15.6139
  endloop
 endfacet
 facet normal        1 -8.12655e-07        0
  outer loop
   vertex  -3.5063  5.21498 0.269006
   vertex  -3.5063  5.21498 -7.00599
   vertex -3.50627   45.115 -7.00599
  endloop
 endfacet
 facet normal        1 -2.93843e-07 1.47725e-06
  outer loop
   vertex -3.50631      2.5  1.18151
   vertex  -3.5063  5.21498 0.269006
   vertex -3.50631  2.69134  1.21957
  endloop
 endfacet
 facet normal        1 -8.12655e-07        0
  outer loop
   vertex  -3.5063  5.21498 0.269006
   vertex -3.50627   45.115 -7.00599
   vertex  -3.5063  5.21498  5.84401
  endloop
 endfacet
 facet normal        1 -6.21488e-07 4.15266e-07
  outer loop
   vertex  -3.5063  5.21498 0.269006
   vertex -3.50631  2.96194  1.49016
   vertex -3.50631  2.85355  1.32795
  endloop
 endfacet
 facet normal        1 -1.0736e-06 -5.92947e-07
  outer loop
   vertex  -3.5063  5.21498 0.269006
   vertex -3.50631  2.85355  1.32795
   vertex -3.50631  2.69134  1.21957
  endloop
 endfacet
 facet normal        1 -1.37381e-06 -9.72769e-07
  outer loop
   vertex -3.50631  2.96194  1.49016
   vertex  -3.5063  5.21498 0.269006
   vertex -3.50631        3  1.68151
  endloop
 endfacet
 facet normal        1 -8.12655e-07        0
  outer loop
   vertex  -3.5063  5.21498  15.6139
   vertex  -3.5063  5.21498  5.84401
   vertex -3.50627   45.115  15.6139
  endloop
 endfacet
 facet normal        1 -8.12655e-07        0
  outer loop
   vertex  -3.5063  5.21498  5.84401
   vertex -3.50627   45.115 -7.00599
   vertex -3.50627   45.115  15.6139
  endloop
 endfacet
 facet normal        1 -3.88739e-07 -2.59748e-07
  outer loop
   vertex  -3.5063  5.21498  5.84401
   vertex -3.50631  2.85355  2.03506
   vertex -3.50631  2.96194  1.87285
  endloop
 endfacet
 facet normal        1 -8.46563e-07        0
  outer loop
   vertex  -3.5063  5.21498 0.269006
   vertex  -3.5063  5.21498  5.84401
   vertex -3.50631  2.96194  1.87285
  endloop
 endfacet
 facet normal        1 4.71011e-08 1.2554e-06
  outer loop
   vertex  -3.5063  5.21498 0.269006
   vertex -3.50631  2.96194  1.87285
   vertex -3.50631        3  1.68151
  endloop
 endfacet
 facet normal        1 -1.27586e-06 2.90244e-07
  outer loop
   vertex  -3.5063  5.21498  5.84401
   vertex -3.50631  2.69134  2.14345
   vertex -3.50631  2.85355  2.03506
  endloop
 endfacet
 facet normal        1 -1.11379e-06 6.64844e-07
  outer loop
   vertex -3.50631    0.885 0.269006
   vertex -3.50631      2.5  1.18151
   vertex -3.50631  2.30865  1.21957
  endloop
 endfacet
 facet normal        1 -3.35061e-07 -5.01455e-07
  outer loop
   vertex -3.50631    0.885 0.269006
   vertex -3.50631  2.30865  1.21957
   vertex -3.50631  2.14644  1.32795
  endloop
 endfacet
 facet normal        1 -5.12376e-07 -1.01918e-07
  outer loop
   vertex -3.50631        2  1.68151
   vertex -3.50631    0.885 0.269006
   vertex -3.50631  2.03806  1.49016
  endloop
 endfacet
 facet normal        1 -1.27481e-06 6.17998e-07
  outer loop
   vertex -3.50631  2.14644  1.32795
   vertex -3.50631  2.03806  1.49016
   vertex -3.50631    0.885 0.269006
  endloop
 endfacet
 facet normal        1 -8.57588e-07 1.70585e-07
  outer loop
   vertex -3.50631  2.03806  1.87285
   vertex -3.50631    0.885 0.269006
   vertex -3.50631        2  1.68151
  endloop
 endfacet
 facet normal        1 -7.70871e-07 5.7929e-08
  outer loop
   vertex -3.50631    0.885 0.269006
   vertex  -3.5063  5.21498 0.269006
   vertex -3.50631      2.5  1.18151
  endloop
 endfacet
 facet normal        1 -1.20508e-06 -2.05899e-07
  outer loop
   vertex -3.50631    0.885  5.84401
   vertex -3.50631  2.30865  2.14345
   vertex -3.50631      2.5  2.18151
  endloop
 endfacet
 facet normal        1 -7.70871e-07 -1.44328e-08
  outer loop
   vertex  -3.5063  5.21498  5.84401
   vertex -3.50631    0.885  5.84401
   vertex -3.50631      2.5  2.18151
  endloop
 endfacet
 facet normal        1 -1.72128e-06 -3.19675e-07
  outer loop
   vertex -3.50631    0.885  5.84401
   vertex -3.50631  2.03806  1.87285
   vertex -3.50631  2.14644  2.03506
  endloop
 endfacet
 facet normal        1 -6.20313e-07        0
  outer loop
   vertex -3.50631    0.885 0.269006
   vertex -3.50631  2.03806  1.87285
   vertex -3.50631    0.885  5.84401
  endloop
 endfacet
 facet normal        1 -1.36984e-07 2.05011e-07
  outer loop
   vertex -3.50631  2.30865  2.14345
   vertex -3.50631    0.885  5.84401
   vertex -3.50631  2.14644  2.03506
  endloop
 endfacet
 facet normal        1 -1.01562e-07 -5.10588e-07
  outer loop
   vertex -3.50631  2.69134  2.14345
   vertex  -3.5063  5.21498  5.84401
   vertex -3.50631      2.5  2.18151
  endloop
 endfacet
 facet normal       -0        0        1
  outer loop
   vertex -30.0019  5.21501  7.28044
   vertex -26.4807    0.885  7.28044
   vertex -26.4807  5.21501  7.28044
  endloop
 endfacet
 facet normal        0        0        1
  outer loop
   vertex -26.4807    0.885  7.28044
   vertex -30.0019  5.21501  7.28044
   vertex -30.0019    0.885  7.28044
  endloop
 endfacet
 facet normal        0        0        1
  outer loop
   vertex -7.08072  5.21499  5.84401
   vertex -3.50631    0.885  5.84401
   vertex  -3.5063  5.21498  5.84401
  endloop
 endfacet
 facet normal        0        0        1
  outer loop
   vertex -3.50631    0.885  5.84401
   vertex -7.08072  5.21499  5.84401
   vertex -7.08072    0.885  5.84401
  endloop
 endfacet
 facet normal       -0        0       -1
  outer loop
   vertex -3.50631    0.885 0.269006
   vertex -7.08072    0.885 0.269006
   vertex -7.08072  5.21499 0.269006
  endloop
 endfacet
 facet normal        0        0       -1
  outer loop
   vertex -7.08072  5.21499 0.269006
   vertex  -3.5063  5.21498 0.269006
   vertex -3.50631    0.885 0.269006
  endloop
 endfacet
 facet normal       -0       -1       -0
  outer loop
   vertex -3.50631    0.885  5.84401
   vertex -7.08072    0.885  5.84401
   vertex -3.50631    0.885 0.269006
  endloop
 endfacet
 facet normal 1.66754e-08       -1 1.06914e-08
  outer loop
   vertex -7.08072    0.885 0.269006
   vertex -3.50631    0.885 0.269006
   vertex -7.08072    0.885  5.84401
  endloop
 endfacet
 facet normal       -0 -0.555571 -0.831469
  outer loop
   vertex -3.50631  2.85355  2.03506
   vertex -3.50631  2.69134  2.14345
   vertex -7.08072  2.85355  2.03506
  endloop
 endfacet
 facet normal        0 -0.19509 -0.980785
  outer loop
   vertex -3.50631      2.5  2.18151
   vertex -7.08072  2.69134  2.14345
   vertex -3.50631  2.69134  2.14345
  endloop
 endfacet
 facet normal        0 -0.831469 -0.555571
  outer loop
   vertex -3.50631  2.85355  2.03506
   vertex -7.08072  2.96194  1.87285
   vertex -3.50631  2.96194  1.87285
  endloop
 endfacet
 facet normal        0 -0.980785  0.19509
  outer loop
   vertex -3.50631  2.96194  1.49016
   vertex -3.50631        3  1.68151
   vertex -7.08072        3  1.68151
  endloop
 endfacet
 facet normal        0 -0.831469 0.555571
  outer loop
   vertex -3.50631  2.96194  1.49016
   vertex -7.08072  2.96194  1.49016
   vertex -3.50631  2.85355  1.32795
  endloop
 endfacet
 facet normal       -0 -0.980785 -0.19509
  outer loop
   vertex -3.50631        3  1.68151
   vertex -3.50631  2.96194  1.87285
   vertex -7.08072        3  1.68151
  endloop
 endfacet
 facet normal        0 -0.55557  0.83147
  outer loop
   vertex -3.50631  2.85355  1.32795
   vertex -7.08072  2.85355  1.32795
   vertex -3.50631  2.69134  1.21957
  endloop
 endfacet
 facet normal       -0 -0.831469 -0.555571
  outer loop
   vertex -3.50631  2.85355  2.03506
   vertex -7.08072  2.85355  2.03506
   vertex -7.08072  2.96194  1.87285
  endloop
 endfacet
 facet normal       -0 -0.19509 -0.980785
  outer loop
   vertex -3.50631      2.5  2.18151
   vertex -7.08072      2.5  2.18151
   vertex -7.08072  2.69134  2.14345
  endloop
 endfacet
 facet normal       -0 -0.555571 -0.831469
  outer loop
   vertex -3.50631  2.69134  2.14345
   vertex -7.08072  2.69134  2.14345
   vertex -7.08072  2.85355  2.03506
  endloop
 endfacet
 facet normal        0 -0.980785  0.19509
  outer loop
   vertex -3.50631  2.96194  1.49016
   vertex -7.08072        3  1.68151
   vertex -7.08072  2.96194  1.49016
  endloop
 endfacet
 facet normal        0 -0.55557  0.83147
  outer loop
   vertex -3.50631  2.69134  1.21957
   vertex -7.08072  2.85355  1.32795
   vertex -7.08072  2.69134  1.21957
  endloop
 endfacet
 facet normal        0 -0.831469 0.555571
  outer loop
   vertex -7.08072  2.85355  1.32795
   vertex -3.50631  2.85355  1.32795
   vertex -7.08072  2.96194  1.49016
  endloop
 endfacet
 facet normal        0 -0.980785 -0.19509
  outer loop
   vertex -7.08072        3  1.68151
   vertex -3.50631  2.96194  1.87285
   vertex -7.08072  2.96194  1.87285
  endloop
 endfacet
 facet normal        0 -0.195091 0.980785
  outer loop
   vertex -7.08072  2.69134  1.21957
   vertex -3.50631      2.5  1.18151
   vertex -3.50631  2.69134  1.21957
  endloop
 endfacet
 facet normal        0  0.19509 -0.980785
  outer loop
   vertex -3.50631  2.30865  2.14345
   vertex -7.08072      2.5  2.18151
   vertex -3.50631      2.5  2.18151
  endloop
 endfacet
 facet normal       -0 0.195091 0.980785
  outer loop
   vertex -7.08072      2.5  1.18151
   vertex -3.50631  2.30865  1.21957
   vertex -3.50631      2.5  1.18151
  endloop
 endfacet
 facet normal       -0  0.83147  0.55557
  outer loop
   vertex -7.08072  2.14644  1.32795
   vertex -3.50631  2.03806  1.49016
   vertex -3.50631  2.14644  1.32795
  endloop
 endfacet
 facet normal       -0  0.55557  0.83147
  outer loop
   vertex -7.08072  2.30865  1.21957
   vertex -3.50631  2.14644  1.32795
   vertex -3.50631  2.30865  1.21957
  endloop
 endfacet
 facet normal        0 0.555571 -0.831469
  outer loop
   vertex -7.08072  2.30865  2.14345
   vertex -3.50631  2.30865  2.14345
   vertex -3.50631  2.14644  2.03506
  endloop
 endfacet
 facet normal        0 0.980785 -0.19509
  outer loop
   vertex -7.08072  2.03806  1.87285
   vertex -3.50631  2.03806  1.87285
   vertex -3.50631        2  1.68151
  endloop
 endfacet
 facet normal        0  0.83147 -0.55557
  outer loop
   vertex -3.50631  2.03806  1.87285
   vertex -7.08072  2.14644  2.03506
   vertex -3.50631  2.14644  2.03506
  endloop
 endfacet
 facet normal       -0 0.980785  0.19509
  outer loop
   vertex -7.08072  2.03806  1.49016
   vertex -3.50631        2  1.68151
   vertex -3.50631  2.03806  1.49016
  endloop
 endfacet
 facet normal        0  0.55557  0.83147
  outer loop
   vertex -3.50631  2.14644  1.32795
   vertex -7.08072  2.30865  1.21957
   vertex -7.08072  2.14644  1.32795
  endloop
 endfacet
 facet normal        0  0.83147  0.55557
  outer loop
   vertex -3.50631  2.03806  1.49016
   vertex -7.08072  2.14644  1.32795
   vertex -7.08072  2.03806  1.49016
  endloop
 endfacet
 facet normal       -0 0.195091 0.980785
  outer loop
   vertex -7.08072  2.30865  1.21957
   vertex -3.50631  2.30865  1.21957
   vertex -7.08072      2.5  1.18151
  endloop
 endfacet
 facet normal        0 0.980785 -0.19509
  outer loop
   vertex -7.08072        2  1.68151
   vertex -7.08072  2.03806  1.87285
   vertex -3.50631        2  1.68151
  endloop
 endfacet
 facet normal       -0 0.980785  0.19509
  outer loop
   vertex -7.08072        2  1.68151
   vertex -3.50631        2  1.68151
   vertex -7.08072  2.03806  1.49016
  endloop
 endfacet
 facet normal        0  0.83147 -0.55557
  outer loop
   vertex -3.50631  2.03806  1.87285
   vertex -7.08072  2.03806  1.87285
   vertex -7.08072  2.14644  2.03506
  endloop
 endfacet
 facet normal        0 0.555571 -0.831469
  outer loop
   vertex -7.08072  2.30865  2.14345
   vertex -3.50631  2.14644  2.03506
   vertex -7.08072  2.14644  2.03506
  endloop
 endfacet
 facet normal        0  0.19509 -0.980785
  outer loop
   vertex -7.08072  2.30865  2.14345
   vertex -7.08072      2.5  2.18151
   vertex -3.50631  2.30865  2.14345
  endloop
 endfacet
 facet normal        0 -0.195091 0.980785
  outer loop
   vertex -7.08072  2.69134  1.21957
   vertex -7.08072      2.5  1.18151
   vertex -3.50631      2.5  1.18151
  endloop
 endfacet
 facet normal        0        0       -1
  outer loop
   vertex -26.4807    0.885 0.269006
   vertex -30.0019    0.885 0.269006
   vertex -30.0019  5.21501 0.269006
  endloop
 endfacet
 facet normal        0        0       -1
  outer loop
   vertex -30.0019  5.21501 0.269006
   vertex -26.4807    5.215 0.269006
   vertex -26.4807    0.885 0.269006
  endloop
 endfacet
 facet normal        0       -1        0
  outer loop
   vertex -30.0019    0.885  7.28044
   vertex -30.0019    0.885 0.269006
   vertex -26.4807    0.885 0.269006
  endloop
 endfacet
 facet normal        0       -1        0
  outer loop
   vertex -26.4807    0.885 0.269006
   vertex -26.4807    0.885  7.28044
   vertex -30.0019    0.885  7.28044
  endloop
 endfacet
 facet normal -6.19283e-07 -0.831469 -0.555571
  outer loop
   vertex -26.4807  2.85357  2.03506
   vertex -30.0019  2.85357  2.03506
   vertex -30.0019  2.96196  1.87285
  endloop
 endfacet
 facet normal -7.96904e-07 -0.980785 -0.19509
  outer loop
   vertex -30.0019  2.96196  1.87285
   vertex -30.0019  3.00002  1.68151
   vertex -26.4807  2.96195  1.87285
  endloop
 endfacet
 facet normal -4.13793e-07 -0.555571 -0.831469
  outer loop
   vertex -30.0019  2.85357  2.03506
   vertex -26.4807  2.85357  2.03506
   vertex -30.0019  2.69136  2.14345
  endloop
 endfacet
 facet normal 1.71723e-07  0.19509 -0.980785
  outer loop
   vertex -26.4807  2.30867  2.14345
   vertex -30.0019  2.30868  2.14345
   vertex -30.0019  2.50002  2.18151
  endloop
 endfacet
 facet normal 6.75582e-07 0.831469 -0.555571
  outer loop
   vertex -30.0019  2.14646  2.03506
   vertex -26.4807  2.03807  1.87285
   vertex -30.0019  2.03808  1.87285
  endloop
 endfacet
 facet normal -1.58514e-07 -0.19509 -0.980785
  outer loop
   vertex -26.4807  2.50001  2.18151
   vertex -30.0019  2.50002  2.18151
   vertex -30.0019  2.69136  2.14345
  endloop
 endfacet
 facet normal 4.89028e-07 0.555571 -0.831469
  outer loop
   vertex -30.0019  2.14646  2.03506
   vertex -30.0019  2.30868  2.14345
   vertex -26.4807  2.30867  2.14345
  endloop
 endfacet
 facet normal -7.96904e-07 -0.980785 -0.19509
  outer loop
   vertex -26.4807  3.00001  1.68151
   vertex -26.4807  2.96195  1.87285
   vertex -30.0019  3.00002  1.68151
  endloop
 endfacet
 facet normal -6.75582e-07 -0.83147 -0.55557
  outer loop
   vertex -26.4807  2.96195  1.87285
   vertex -26.4807  2.85357  2.03506
   vertex -30.0019  2.96196  1.87285
  endloop
 endfacet
 facet normal -4.5141e-07 -0.55557 -0.83147
  outer loop
   vertex -26.4807  2.85357  2.03506
   vertex -26.4807  2.69136  2.14345
   vertex -30.0019  2.69136  2.14345
  endloop
 endfacet
 facet normal 1.58514e-07  0.19509 -0.980785
  outer loop
   vertex -26.4807  2.50001  2.18151
   vertex -26.4807  2.30867  2.14345
   vertex -30.0019  2.50002  2.18151
  endloop
 endfacet
 facet normal -1.58514e-07 -0.19509 -0.980785
  outer loop
   vertex -30.0019  2.69136  2.14345
   vertex -26.4807  2.69136  2.14345
   vertex -26.4807  2.50001  2.18151
  endloop
 endfacet
 facet normal 4.89028e-07 0.555571 -0.831469
  outer loop
   vertex -26.4807  2.14646  2.03506
   vertex -30.0019  2.14646  2.03506
   vertex -26.4807  2.30867  2.14345
  endloop
 endfacet
 facet normal 7.31881e-07  0.83147 -0.55557
  outer loop
   vertex -30.0019  2.14646  2.03506
   vertex -26.4807  2.14646  2.03506
   vertex -26.4807  2.03807  1.87285
  endloop
 endfacet
 facet normal 7.96904e-07 0.980785 -0.19509
  outer loop
   vertex -26.4807  2.03807  1.87285
   vertex -30.0019  2.00002  1.68151
   vertex -30.0019  2.03808  1.87285
  endloop
 endfacet
 facet normal -7.96904e-07 -0.980785  0.19509
  outer loop
   vertex -26.4807  2.96195  1.49016
   vertex -26.4807  3.00001  1.68151
   vertex -30.0019  3.00002  1.68151
  endloop
 endfacet
 facet normal 6.75582e-07 0.831469 0.555571
  outer loop
   vertex -30.0019  2.03808  1.49016
   vertex -26.4807  2.03807  1.49016
   vertex -30.0019  2.14646  1.32795
  endloop
 endfacet
 facet normal 7.96904e-07 0.980785  0.19509
  outer loop
   vertex -30.0019  2.00002  1.68151
   vertex -26.4807  2.00001  1.68151
   vertex -30.0019  2.03808  1.49016
  endloop
 endfacet
 facet normal 4.89027e-07  0.55557  0.83147
  outer loop
   vertex -26.4807  2.14646  1.32795
   vertex -30.0019  2.30868  1.21957
   vertex -30.0019  2.14646  1.32795
  endloop
 endfacet
 facet normal -4.5141e-07 -0.55557  0.83147
  outer loop
   vertex -30.0019  2.85357  1.32795
   vertex -30.0019  2.69136  1.21957
   vertex -26.4807  2.69136  1.21957
  endloop
 endfacet
 facet normal 1.58514e-07 0.195091 0.980785
  outer loop
   vertex -30.0019  2.50002  1.18151
   vertex -30.0019  2.30868  1.21957
   vertex -26.4807  2.50001  1.18151
  endloop
 endfacet
 facet normal -1.58514e-07 -0.195091 0.980785
  outer loop
   vertex -30.0019  2.50002  1.18151
   vertex -26.4807  2.69136  1.21957
   vertex -30.0019  2.69136  1.21957
  endloop
 endfacet
 facet normal -6.19283e-07 -0.831469 0.555571
  outer loop
   vertex -30.0019  2.96196  1.49016
   vertex -30.0019  2.85357  1.32795
   vertex -26.4807  2.85357  1.32795
  endloop
 endfacet
 facet normal 7.96904e-07 0.980785  0.19509
  outer loop
   vertex -30.0019  2.03808  1.49016
   vertex -26.4807  2.00001  1.68151
   vertex -26.4807  2.03807  1.49016
  endloop
 endfacet
 facet normal 7.31881e-07  0.83147  0.55557
  outer loop
   vertex -30.0019  2.14646  1.32795
   vertex -26.4807  2.03807  1.49016
   vertex -26.4807  2.14646  1.32795
  endloop
 endfacet
 facet normal 4.89027e-07  0.55557  0.83147
  outer loop
   vertex -30.0019  2.30868  1.21957
   vertex -26.4807  2.14646  1.32795
   vertex -26.4807  2.30867  1.21957
  endloop
 endfacet
 facet normal -1.58514e-07 -0.195091 0.980785
  outer loop
   vertex -26.4807  2.69136  1.21957
   vertex -30.0019  2.50002  1.18151
   vertex -26.4807  2.50001  1.18151
  endloop
 endfacet
 facet normal -6.75582e-07 -0.83147  0.55557
  outer loop
   vertex -26.4807  2.96195  1.49016
   vertex -30.0019  2.96196  1.49016
   vertex -26.4807  2.85357  1.32795
  endloop
 endfacet
 facet normal 1.71724e-07 0.195091 0.980785
  outer loop
   vertex -26.4807  2.50001  1.18151
   vertex -30.0019  2.30868  1.21957
   vertex -26.4807  2.30867  1.21957
  endloop
 endfacet
 facet normal -4.13792e-07 -0.55557  0.83147
  outer loop
   vertex -26.4807  2.69136  1.21957
   vertex -26.4807  2.85357  1.32795
   vertex -30.0019  2.85357  1.32795
  endloop
 endfacet
 facet normal -7.96904e-07 -0.980785  0.19509
  outer loop
   vertex -26.4807  2.96195  1.49016
   vertex -30.0019  3.00002  1.68151
   vertex -30.0019  2.96196  1.49016
  endloop
 endfacet
 facet normal 7.96904e-07 0.980785 -0.19509
  outer loop
   vertex -26.4807  2.03807  1.87285
   vertex -26.4807  2.00001  1.68151
   vertex -30.0019  2.00002  1.68151
  endloop
 endfacet
 facet normal        1 -9.26691e-07        0
  outer loop
   vertex -24.7507    8.125 0.619006
   vertex -24.7507   43.115 0.069006
   vertex -24.7507   43.115 0.619006
  endloop
 endfacet
 facet normal        1 -8.55539e-07 4.52658e-06
  outer loop
   vertex -24.7507    5.215 0.069006
   vertex -24.7507   43.115 0.069006
   vertex -24.7507    8.125 0.619006
  endloop
 endfacet
 facet normal        1        0        0
  outer loop
   vertex -24.7507    8.125  2.89401
   vertex -24.7507    5.215  2.89401
   vertex -24.7507    8.125 0.619006
  endloop
 endfacet
 facet normal        1        0        0
  outer loop
   vertex -24.7507    5.215 0.069006
   vertex -24.7507    8.125 0.619006
   vertex -24.7507    5.215  2.89401
  endloop
 endfacet
 facet normal        0        0        1
  outer loop
   vertex -12.4607   43.115 0.069006
   vertex -11.4807  5.21499 0.069006
   vertex -11.4807   43.115 0.069006
  endloop
 endfacet
 facet normal        0        0        1
  outer loop
   vertex -21.1007   45.115 0.069006
   vertex -12.4607   43.115 0.069006
   vertex -12.4607   45.115 0.069006
  endloop
 endfacet
 facet normal        0        0        1
  outer loop
   vertex -12.4607   43.115 0.069006
   vertex -21.1007   43.115 0.069006
   vertex -11.4807  5.21499 0.069006
  endloop
 endfacet
 facet normal       -0        0        1
  outer loop
   vertex -24.7507   43.115 0.069006
   vertex -24.7507    5.215 0.069006
   vertex -21.1007   43.115 0.069006
  endloop
 endfacet
 facet normal        0        0        1
  outer loop
   vertex -11.4807  5.21499 0.069006
   vertex -21.1007   43.115 0.069006
   vertex -24.7507    5.215 0.069006
  endloop
 endfacet
 facet normal        0        0        1
  outer loop
   vertex -12.4607   43.115 0.069006
   vertex -21.1007   45.115 0.069006
   vertex -21.1007   43.115 0.069006
  endloop
 endfacet
 facet normal       -1 8.30376e-07        0
  outer loop
   vertex -11.4807   43.115 0.619006
   vertex -11.4807  5.21499 0.069006
   vertex -11.4807  5.21499 0.619006
  endloop
 endfacet
 facet normal       -1 8.30376e-07        0
  outer loop
   vertex -11.4807  5.21499 0.069006
   vertex -11.4807   43.115 0.619006
   vertex -11.4807   43.115 0.069006
  endloop
 endfacet
 facet normal        0        0        1
  outer loop
   vertex -11.4807   43.115 0.619006
   vertex -7.08072  5.21499 0.619006
   vertex -7.08069   43.115 0.619006
  endloop
 endfacet
 facet normal        0        0        1
  outer loop
   vertex -7.08072  5.21499 0.619006
   vertex -11.4807   43.115 0.619006
   vertex -11.4807  5.21499 0.619006
  endloop
 endfacet
 facet normal       -1 2.30745e-06 -1.39781e-06
  outer loop
   vertex -7.08072  2.03806  1.49016
   vertex -7.08072  2.14644  1.32795
   vertex -7.08072    0.885 0.269006
  endloop
 endfacet
 facet normal       -1 5.02592e-07 7.52182e-07
  outer loop
   vertex -7.08072  2.30865  1.21957
   vertex -7.08072    0.885 0.269006
   vertex -7.08072  2.14644  1.32795
  endloop
 endfacet
 facet normal       -1 6.83168e-07 1.3589e-07
  outer loop
   vertex -7.08072        2  1.68151
   vertex -7.08072  2.03806  1.49016
   vertex -7.08072    0.885 0.269006
  endloop
 endfacet
 facet normal       -1 2.30637e-07 1.15949e-06
  outer loop
   vertex -7.08072    0.885 0.269006
   vertex -7.08072  2.30865  1.21957
   vertex -7.08072      2.5  1.18151
  endloop
 endfacet
 facet normal       -1 1.70155e-06 3.97423e-06
  outer loop
   vertex -7.08072      2.5  1.18151
   vertex -7.08072  2.69134  1.21957
   vertex -7.08072  5.21499 0.619006
  endloop
 endfacet
 facet normal       -1 8.80198e-07 9.85857e-09
  outer loop
   vertex -7.08072  5.21499 0.619006
   vertex -7.08072    0.885 0.269006
   vertex -7.08072      2.5  1.18151
  endloop
 endfacet
 facet normal       -1 8.27085e-07 -8.8427e-15
  outer loop
   vertex -7.08072    0.885  5.84401
   vertex -7.08072  2.03806  1.87285
   vertex -7.08072    0.885 0.269006
  endloop
 endfacet
 facet normal       -1 1.14345e-06 -2.27446e-07
  outer loop
   vertex -7.08072        2  1.68151
   vertex -7.08072    0.885 0.269006
   vertex -7.08072  2.03806  1.87285
  endloop
 endfacet
 facet normal       -1 3.3173e-06 7.23052e-07
  outer loop
   vertex -7.08072  2.14644  2.03506
   vertex -7.08072  2.03806  1.87285
   vertex -7.08072    0.885  5.84401
  endloop
 endfacet
 facet normal       -1 7.14268e-08 -3.59087e-07
  outer loop
   vertex -7.08072    0.885  5.84401
   vertex -7.08072      2.5  2.18151
   vertex -7.08072  2.30865  2.14345
  endloop
 endfacet
 facet normal       -1 2.05476e-07 -3.07517e-07
  outer loop
   vertex -7.08072    0.885  5.84401
   vertex -7.08072  2.30865  2.14345
   vertex -7.08072  2.14644  2.03506
  endloop
 endfacet
 facet normal       -1 8.80995e-07 -2.10468e-09
  outer loop
   vertex -7.08072  5.21499  5.84401
   vertex -7.08072      2.5  2.18151
   vertex -7.08072    0.885  5.84401
  endloop
 endfacet
 facet normal       -1 6.72752e-07 -4.49519e-07
  outer loop
   vertex -7.08072  5.21499 0.619006
   vertex -7.08072  2.85355  1.32795
   vertex -7.08072  2.96194  1.49016
  endloop
 endfacet
 facet normal       -1 7.86102e-07 -1.56365e-07
  outer loop
   vertex -7.08072  5.21499 0.619006
   vertex -7.08072  2.96194  1.49016
   vertex -7.08072        3  1.68151
  endloop
 endfacet
 facet normal       -1 9.51938e-07 1.89352e-07
  outer loop
   vertex -7.08072  2.96194  1.87285
   vertex -7.08072  5.21499 0.619006
   vertex -7.08072        3  1.68151
  endloop
 endfacet
 facet normal       -1 5.57305e-07 -8.34065e-07
  outer loop
   vertex -7.08072  2.69134  1.21957
   vertex -7.08072  2.85355  1.32795
   vertex -7.08072  5.21499 0.619006
  endloop
 endfacet
 facet normal       -1 8.80995e-07 -1.20026e-12
  outer loop
   vertex -7.08072  5.21499 0.619006
   vertex -7.08072  5.21499 0.269006
   vertex -7.08072    0.885 0.269006
  endloop
 endfacet
 facet normal       -1 8.17795e-07 -5.16922e-08
  outer loop
   vertex -7.08069   43.115 0.619006
   vertex -7.08072  5.21499 0.619006
   vertex -7.08072  2.96194  1.87285
  endloop
 endfacet
 facet normal       -1 8.3687e-07 5.5918e-07
  outer loop
   vertex -7.08072  2.85355  2.03506
   vertex -7.08069   43.115 0.619006
   vertex -7.08072  2.96194  1.87285
  endloop
 endfacet
 facet normal       -1 8.62609e-07 1.29098e-06
  outer loop
   vertex -7.08072  2.69134  2.14345
   vertex -7.08069   43.115 0.619006
   vertex -7.08072  2.85355  2.03506
  endloop
 endfacet
 facet normal       -1 8.17795e-07 -5.84933e-12
  outer loop
   vertex -7.08072  5.21499  6.04401
   vertex -7.08069   43.115  6.04401
   vertex -7.08072  5.21499  5.84401
  endloop
 endfacet
 facet normal       -1 8.18019e-07 -4.24377e-08
  outer loop
   vertex -7.08072  2.69134  2.14345
   vertex -7.08072  5.21499  5.84401
   vertex -7.08069   43.115  6.04401
  endloop
 endfacet
 facet normal       -1 8.13924e-07        0
  outer loop
   vertex -7.08069   43.115 0.619006
   vertex -7.08072  2.69134  2.14345
   vertex -7.08069   43.115  6.04401
  endloop
 endfacet
 facet normal       -1 2.28468e-06 -1.04265e-06
  outer loop
   vertex -7.08072  2.69134  2.14345
   vertex -7.08072      2.5  2.18151
   vertex -7.08072  5.21499  5.84401
  endloop
 endfacet
 facet normal        0        0       -1
  outer loop
   vertex -7.08072  5.21499  6.04401
   vertex -7.73697  5.21499  6.04401
   vertex -7.73694   43.115  6.04401
  endloop
 endfacet
 facet normal        0        0       -1
  outer loop
   vertex -7.73694   43.115  6.04401
   vertex -7.08069   43.115  6.04401
   vertex -7.08072  5.21499  6.04401
  endloop
 endfacet
 facet normal       -1 8.30376e-07        0
  outer loop
   vertex -7.73694   43.115  6.04401
   vertex -7.73697  5.21499  6.04401
   vertex -7.73697  5.21499   11.954
  endloop
 endfacet
 facet normal       -1 8.30376e-07        0
  outer loop
   vertex -7.73697  5.21499   11.954
   vertex -7.73694   43.115   11.954
   vertex -7.73694   43.115  6.04401
  endloop
 endfacet
 facet normal        0       -0       -1
  outer loop
   vertex -25.8246   43.115   11.954
   vertex -21.1007   43.115   11.954
   vertex -25.8247    5.215   11.954
  endloop
 endfacet
 facet normal        0        0       -1
  outer loop
   vertex -7.73697  5.21499   11.954
   vertex -25.8247    5.215   11.954
   vertex -21.1007   43.115   11.954
  endloop
 endfacet
 facet normal        0       -0       -1
  outer loop
   vertex -21.1007   45.115   11.954
   vertex -12.4607   43.115   11.954
   vertex -21.1007   43.115   11.954
  endloop
 endfacet
 facet normal        0        0       -1
  outer loop
   vertex -12.4607   43.115   11.954
   vertex -7.73694   43.115   11.954
   vertex -7.73697  5.21499   11.954
  endloop
 endfacet
 facet normal        0        0       -1
  outer loop
   vertex -21.1007   45.115   11.954
   vertex -12.4607   45.115   11.954
   vertex -12.4607   43.115   11.954
  endloop
 endfacet
 facet normal        0        0       -1
  outer loop
   vertex -21.1007   43.115   11.954
   vertex -12.4607   43.115   11.954
   vertex -7.73697  5.21499   11.954
  endloop
 endfacet
 facet normal        1 -8.05213e-07        0
  outer loop
   vertex -25.8247    5.215   11.954
   vertex -25.8246   43.115  7.69401
   vertex -25.8246   43.115   11.954
  endloop
 endfacet
 facet normal        1 -8.05213e-07        0
  outer loop
   vertex -25.8246   43.115  7.69401
   vertex -25.8247    5.215   11.954
   vertex -25.8247    5.215  7.69401
  endloop
 endfacet
 facet normal        0        0       -1
  outer loop
   vertex -25.8247    5.215  7.69401
   vertex -26.4807    5.215  7.69401
   vertex -26.4807   43.115  7.69401
  endloop
 endfacet
 facet normal        0        0       -1
  outer loop
   vertex -26.4807   43.115  7.69401
   vertex -25.8246   43.115  7.69401
   vertex -25.8247    5.215  7.69401
  endloop
 endfacet
 facet normal        0        1        0
  outer loop
   vertex -26.4807    8.125 0.619006
   vertex -26.4807    8.125  2.89401
   vertex -24.7507    8.125  2.89401
  endloop
 endfacet
 facet normal        0        1        0
  outer loop
   vertex -24.7507    8.125  2.89401
   vertex -24.7507    8.125 0.619006
   vertex -26.4807    8.125 0.619006
  endloop
 endfacet
 facet normal        0        0        1
  outer loop
   vertex -26.4807    8.125  2.89401
   vertex -26.4807    5.215  2.89401
   vertex -24.7507    5.215  2.89401
  endloop
 endfacet
 facet normal        0       -0        1
  outer loop
   vertex -24.7507    5.215  2.89401
   vertex -24.7507    8.125  2.89401
   vertex -26.4807    8.125  2.89401
  endloop
 endfacet
 facet normal 4.41515e-07        1 5.22882e-07
  outer loop
   vertex -30.0019   45.115 -7.00599
   vertex -21.1007   45.115 0.069006
   vertex -12.4607   45.115 0.069006
  endloop
 endfacet
 facet normal 9.63401e-07        1 -1.33712e-07
  outer loop
   vertex -21.1007   45.115 0.069006
   vertex -30.0019   45.115 -7.00599
   vertex -24.4634   45.115  4.37013
  endloop
 endfacet
 facet normal 9.10616e-07        1 6.08452e-07
  outer loop
   vertex -12.4607   45.115 0.069006
   vertex -10.4046   45.115  3.26132
   vertex -10.1878   45.115   2.9369
  endloop
 endfacet
 facet normal 1.41752e-06        1 2.81963e-07
  outer loop
   vertex -10.4807   45.115  3.64401
   vertex -10.4046   45.115  3.26132
   vertex -12.4607   45.115 0.069006
  endloop
 endfacet
 facet normal 5.81067e-07        1 8.69629e-07
  outer loop
   vertex -12.4607   45.115 0.069006
   vertex -10.1878   45.115   2.9369
   vertex -9.86338   45.115  2.72013
  endloop
 endfacet
 facet normal 7.19874e-07        1 -1.67258e-07
  outer loop
   vertex -30.0019   45.115 -7.00599
   vertex -12.4607   45.115 0.069006
   vertex -3.50627   45.115 -7.00599
  endloop
 endfacet
 facet normal -2.08902e-07        1 -1.05023e-06
  outer loop
   vertex -24.4634   45.115  4.37013
   vertex -24.0807   45.115  4.29401
   vertex -21.1007   45.115 0.069006
  endloop
 endfacet
 facet normal 1.67836e-06        1       -0
  outer loop
   vertex -21.1007   45.115 0.069006
   vertex -23.3736   45.115   4.5869
   vertex -21.1007   45.115  6.01151
  endloop
 endfacet
 facet normal 1.55644e-06        1 -3.09595e-07
  outer loop
   vertex -12.4607   45.115  6.01151
   vertex -10.4046   45.115  4.02669
   vertex -10.4807   45.115  3.64401
  endloop
 endfacet
 facet normal 1.57497e-07        1 -7.91801e-07
  outer loop
   vertex  -23.698   45.115  4.37013
   vertex -21.1007   45.115 0.069006
   vertex -24.0807   45.115  4.29401
  endloop
 endfacet
 facet normal 1.6906e-07        1 2.53017e-07
  outer loop
   vertex -30.0019   45.115 -7.00599
   vertex -24.7878   45.115   4.5869
   vertex -24.4634   45.115  4.37013
  endloop
 endfacet
 facet normal -3.82791e-07        1 1.92443e-06
  outer loop
   vertex -9.09801   45.115  2.72013
   vertex -12.4607   45.115 0.069006
   vertex -9.48069   45.115  2.64401
  endloop
 endfacet
 facet normal 1.89335e-07        1 -2.83359e-07
  outer loop
   vertex -3.50627   45.115 -7.00599
   vertex -9.09801   45.115  2.72013
   vertex -8.77359   45.115   2.9369
  endloop
 endfacet
 facet normal 9.93379e-07        1 1.78901e-07
  outer loop
   vertex -3.50627   45.115 -7.00599
   vertex -12.4607   45.115 0.069006
   vertex -9.09801   45.115  2.72013
  endloop
 endfacet
 facet normal 3.20268e-07        1 -2.13997e-07
  outer loop
   vertex -3.50627   45.115 -7.00599
   vertex -8.77359   45.115   2.9369
   vertex -8.55681   45.115  3.26132
  endloop
 endfacet
 facet normal 2.39536e-07        1 1.20423e-06
  outer loop
   vertex -9.48069   45.115  2.64401
   vertex -12.4607   45.115 0.069006
   vertex -9.86338   45.115  2.72013
  endloop
 endfacet
 facet normal 7.66863e-07        1       -0
  outer loop
   vertex -3.50627   45.115 -7.00599
   vertex -8.48069   45.115  3.64401
   vertex -3.50627   45.115  15.6139
  endloop
 endfacet
 facet normal 5.37824e-07        1 -1.0698e-07
  outer loop
   vertex -8.55681   45.115  3.26132
   vertex -8.48069   45.115  3.64401
   vertex -3.50627   45.115 -7.00599
  endloop
 endfacet
 facet normal 2.98189e-07        1 1.99244e-07
  outer loop
   vertex -8.77359   45.115  4.35111
   vertex -3.50627   45.115  15.6139
   vertex -8.55681   45.115  4.02669
  endloop
 endfacet
 facet normal 5.18627e-07        1 1.03161e-07
  outer loop
   vertex -3.50627   45.115  15.6139
   vertex -8.48069   45.115  3.64401
   vertex -8.55681   45.115  4.02669
  endloop
 endfacet
 facet normal 4.22244e-07        1 -6.3193e-07
  outer loop
   vertex -21.1007   45.115 0.069006
   vertex  -23.698   45.115  4.37013
   vertex -23.3736   45.115   4.5869
  endloop
 endfacet
 facet normal 1.67325e-06        1 1.11803e-06
  outer loop
   vertex -21.1007   45.115  6.01151
   vertex -23.1568   45.115  5.67669
   vertex -23.3736   45.115  6.00111
  endloop
 endfacet
 facet normal 5.17751e-07        1 1.02987e-07
  outer loop
   vertex -25.0046   45.115  4.91132
   vertex -30.0019   45.115 -7.00599
   vertex -25.0807   45.115  5.29401
  endloop
 endfacet
 facet normal 2.88778e-06        1 -1.92955e-06
  outer loop
   vertex -21.1007   45.115  6.01151
   vertex -23.3736   45.115   4.5869
   vertex -23.1568   45.115  4.91132
  endloop
 endfacet
 facet normal 5.46992e-07        1 -1.08803e-07
  outer loop
   vertex -25.0807   45.115  5.29401
   vertex -30.0019   45.115  15.6139
   vertex -25.0046   45.115  5.67669
  endloop
 endfacet
 facet normal 2.94339e-07        1 1.96671e-07
  outer loop
   vertex -25.0046   45.115  4.91132
   vertex -24.7878   45.115   4.5869
   vertex -30.0019   45.115 -7.00599
  endloop
 endfacet
 facet normal 1.9462e-07        1 -2.91271e-07
  outer loop
   vertex -24.7878   45.115  6.00111
   vertex -30.0019   45.115  15.6139
   vertex -24.4634   45.115  6.21789
  endloop
 endfacet
 facet normal 3.27804e-07        1 -2.19031e-07
  outer loop
   vertex -30.0019   45.115  15.6139
   vertex -24.7878   45.115  6.00111
   vertex -25.0046   45.115  5.67669
  endloop
 endfacet
 facet normal -1.49744e-07        1 7.52815e-07
  outer loop
   vertex -21.1007   45.115   11.954
   vertex -24.0807   45.115  6.29401
   vertex -24.4634   45.115  6.21789
  endloop
 endfacet
 facet normal 1.21353e-07        1 6.10083e-07
  outer loop
   vertex -21.1007   45.115   11.954
   vertex  -23.698   45.115  6.21789
   vertex -24.0807   45.115  6.29401
  endloop
 endfacet
 facet normal 9.10981e-07        1 1.30991e-07
  outer loop
   vertex -21.1007   45.115   11.954
   vertex -24.4634   45.115  6.21789
   vertex -30.0019   45.115  15.6139
  endloop
 endfacet
 facet normal 7.75155e-07        1       -0
  outer loop
   vertex -30.0019   45.115 -7.00599
   vertex -30.0019   45.115  15.6139
   vertex -25.0807   45.115  5.29401
  endloop
 endfacet
 facet normal 1.7971e-06        1 3.57465e-07
  outer loop
   vertex -21.1007   45.115  6.01151
   vertex -23.0807   45.115  5.29401
   vertex -23.1568   45.115  5.67669
  endloop
 endfacet
 facet normal 3.87089e-07        1 -1.94602e-06
  outer loop
   vertex -9.48069   45.115  4.64401
   vertex -9.86338   45.115  4.56789
   vertex -12.4607   45.115  6.01151
  endloop
 endfacet
 facet normal -1.12962e-07        1 -5.67896e-07
  outer loop
   vertex -9.09801   45.115  4.56789
   vertex -9.48069   45.115  4.64401
   vertex -12.4607   45.115   11.954
  endloop
 endfacet
 facet normal 1.92663e-06        1 -3.09192e-13
  outer loop
   vertex -12.4607   45.115 0.069006
   vertex -12.4607   45.115  6.01151
   vertex -10.4807   45.115  3.64401
  endloop
 endfacet
 facet normal 2.0763e-06        1 -4.13002e-07
  outer loop
   vertex -23.1568   45.115  4.91132
   vertex -23.0807   45.115  5.29401
   vertex -21.1007   45.115  6.01151
  endloop
 endfacet
 facet normal 1.66696e-06        1 2.49477e-06
  outer loop
   vertex  -23.698   45.115  6.21789
   vertex -21.1007   45.115  6.01151
   vertex -23.3736   45.115  6.00111
  endloop
 endfacet
 facet normal 4.41515e-07        1 -1.01079e-06
  outer loop
   vertex -30.0019   45.115  15.6139
   vertex -12.4607   45.115   11.954
   vertex -21.1007   45.115   11.954
  endloop
 endfacet
 facet normal 7.19874e-07        1 3.23329e-07
  outer loop
   vertex -12.4607   45.115   11.954
   vertex -30.0019   45.115  15.6139
   vertex -3.50627   45.115  15.6139
  endloop
 endfacet
 facet normal 8.96332e-07        1 -1.08397e-07
  outer loop
   vertex -3.50627   45.115  15.6139
   vertex -9.09801   45.115  4.56789
   vertex -12.4607   45.115   11.954
  endloop
 endfacet
 facet normal 1.46872e-06        1        0
  outer loop
   vertex  -23.698   45.115  6.21789
   vertex -21.1007   45.115   11.954
   vertex -21.1007   45.115  6.01151
  endloop
 endfacet
 facet normal 8.01771e-07        1 -1.19994e-06
  outer loop
   vertex -10.1878   45.115  4.35111
   vertex -12.4607   45.115  6.01151
   vertex -9.86338   45.115  4.56789
  endloop
 endfacet
 facet normal 1.72429e-07        1 2.58058e-07
  outer loop
   vertex -9.09801   45.115  4.56789
   vertex -3.50627   45.115  15.6139
   vertex -8.77359   45.115  4.35111
  endloop
 endfacet
 facet normal 1.28011e-06        1 -2.05436e-13
  outer loop
   vertex -12.4607   45.115  6.01151
   vertex -12.4607   45.115   11.954
   vertex -9.48069   45.115  4.64401
  endloop
 endfacet
 facet normal 1.12784e-06        1 -7.53594e-07
  outer loop
   vertex -10.4046   45.115  4.02669
   vertex -12.4607   45.115  6.01151
   vertex -10.1878   45.115  4.35111
  endloop
 endfacet
 facet normal -3.89252e-06       -1        0
  outer loop
   vertex -12.4607   43.115 0.069006
   vertex -11.4807   43.115 0.069006
   vertex -11.4807   43.115 0.619006
  endloop
 endfacet
 facet normal -4.77916e-06       -1 1.57985e-06
  outer loop
   vertex -10.4807   43.115  3.64401
   vertex -12.4607   43.115 0.069006
   vertex -11.4807   43.115 0.619006
  endloop
 endfacet
 facet normal        0       -1       -0
  outer loop
   vertex -10.1878   43.115   2.9369
   vertex -11.4807   43.115 0.619006
   vertex -9.28068   43.115 0.619006
  endloop
 endfacet
 facet normal        0       -1        0
  outer loop
   vertex -9.28068   43.115 0.619006
   vertex -9.86338   43.115  2.72013
   vertex -10.1878   43.115   2.9369
  endloop
 endfacet
 facet normal        0       -1       -0
  outer loop
   vertex -10.4046   43.115  3.26132
   vertex -11.4807   43.115 0.619006
   vertex -10.1878   43.115   2.9369
  endloop
 endfacet
 facet normal -1.92663e-06       -1        0
  outer loop
   vertex -12.4607   43.115 0.069006
   vertex -10.4807   43.115  3.64401
   vertex -12.4607   43.115   11.954
  endloop
 endfacet
 facet normal        0       -1       -0
  outer loop
   vertex -10.4807   43.115  3.64401
   vertex -11.4807   43.115 0.619006
   vertex -10.4046   43.115  3.26132
  endloop
 endfacet
 facet normal -1.05002e-06       -1 2.08865e-07
  outer loop
   vertex -12.4607   43.115   11.954
   vertex -10.4807   43.115  3.64401
   vertex -10.4046   43.115  4.02669
  endloop
 endfacet
 facet normal -2.79436e-07       -1 4.18206e-07
  outer loop
   vertex -10.1878   43.115  4.35111
   vertex -9.86338   43.115  4.56789
   vertex -12.4607   43.115   11.954
  endloop
 endfacet
 facet normal -5.18798e-07       -1 3.46649e-07
  outer loop
   vertex -10.4046   43.115  4.02669
   vertex -10.1878   43.115  4.35111
   vertex -12.4607   43.115   11.954
  endloop
 endfacet
 facet normal -8.07558e-07       -1 2.32493e-07
  outer loop
   vertex -12.4607   43.115   11.954
   vertex -9.86338   43.115  4.56789
   vertex -7.73694   43.115   11.954
  endloop
 endfacet
 facet normal -1.73396e-06       -1 3.79344e-07
  outer loop
   vertex -9.28068   43.115 0.619006
   vertex -7.08069   43.115 0.619006
   vertex -8.77359   43.115   2.9369
  endloop
 endfacet
 facet normal        0       -1       -0
  outer loop
   vertex -9.09801   43.115  2.72013
   vertex -9.28068   43.115 0.619006
   vertex -8.77359   43.115   2.9369
  endloop
 endfacet
 facet normal -1.17677e-06       -1 7.86292e-07
  outer loop
   vertex -8.55681   43.115  3.26132
   vertex -8.77359   43.115   2.9369
   vertex -7.08069   43.115 0.619006
  endloop
 endfacet
 facet normal        0       -1        0
  outer loop
   vertex -7.73694   43.115  6.04401
   vertex -8.55681   43.115  4.02669
   vertex -8.48069   43.115  3.64401
  endloop
 endfacet
 facet normal -1.90571e-06       -1 3.79074e-07
  outer loop
   vertex -7.08069   43.115 0.619006
   vertex -8.48069   43.115  3.64401
   vertex -8.55681   43.115  3.26132
  endloop
 endfacet
 facet normal -2.72478e-06       -1       -0
  outer loop
   vertex -7.08069   43.115  6.04401
   vertex -8.48069   43.115  3.64401
   vertex -7.08069   43.115 0.619006
  endloop
 endfacet
 facet normal        0       -1        0
  outer loop
   vertex -9.48069   43.115  2.64401
   vertex -9.28068   43.115 0.619006
   vertex -9.09801   43.115  2.72013
  endloop
 endfacet
 facet normal        0       -1        0
  outer loop
   vertex -9.09801   43.115  4.56789
   vertex -8.77359   43.115  4.35111
   vertex -7.73694   43.115  6.04401
  endloop
 endfacet
 facet normal        0       -1        0
  outer loop
   vertex -9.48069   43.115  4.64401
   vertex -9.09801   43.115  4.56789
   vertex -7.73694   43.115  6.04401
  endloop
 endfacet
 facet normal        0       -1        0
  outer loop
   vertex -7.73694   43.115  6.04401
   vertex -8.77359   43.115  4.35111
   vertex -8.55681   43.115  4.02669
  endloop
 endfacet
 facet normal       -0       -1        0
  outer loop
   vertex -7.73694   43.115  6.04401
   vertex -7.73694   43.115   11.954
   vertex -9.48069   43.115  4.64401
  endloop
 endfacet
 facet normal -5.81291e-06       -1 1.80141e-06
  outer loop
   vertex -8.48069   43.115  3.64401
   vertex -7.08069   43.115  6.04401
   vertex -7.73694   43.115  6.04401
  endloop
 endfacet
 facet normal       -0       -1        0
  outer loop
   vertex -9.48069   43.115  4.64401
   vertex -7.73694   43.115   11.954
   vertex -9.86338   43.115  4.56789
  endloop
 endfacet
 facet normal        0       -1        0
  outer loop
   vertex -9.86338   43.115  2.72013
   vertex -9.28068   43.115 0.619006
   vertex -9.48069   43.115  2.64401
  endloop
 endfacet
 facet normal       -1 9.53674e-07 1.60484e-07
  outer loop
   vertex -12.4607   45.115   11.954
   vertex -12.4607   45.115 0.069006
   vertex -12.4607   43.115   11.954
  endloop
 endfacet
 facet normal       -1        0        0
  outer loop
   vertex -12.4607   43.115 0.069006
   vertex -12.4607   43.115   11.954
   vertex -12.4607   45.115 0.069006
  endloop
 endfacet
 facet normal  0.83147 -3.96476e-07 -0.555569
  outer loop
   vertex -10.1878   45.115  4.35111
   vertex -10.1878   43.115  4.35111
   vertex -10.4046   43.115  4.02669
  endloop
 endfacet
 facet normal 0.980785 -9.35349e-07 -0.195092
  outer loop
   vertex -10.4046   43.115  4.02669
   vertex -10.4807   43.115  3.64401
   vertex -10.4807   45.115  3.64401
  endloop
 endfacet
 facet normal 0.555569 -2.64916e-07 -0.83147
  outer loop
   vertex -10.1878   43.115  4.35111
   vertex -10.1878   45.115  4.35111
   vertex -9.86338   43.115  4.56789
  endloop
 endfacet
 facet normal -0.195091 9.30267e-08 -0.980785
  outer loop
   vertex -9.48069   45.115  4.64401
   vertex -9.09801   43.115  4.56789
   vertex -9.48069   43.115  4.64401
  endloop
 endfacet
 facet normal -0.83147 7.92952e-07 -0.555569
  outer loop
   vertex -8.77359   43.115  4.35111
   vertex -8.55681   45.115  4.02669
   vertex -8.55681   43.115  4.02669
  endloop
 endfacet
 facet normal 0.195092 -9.30269e-08 -0.980785
  outer loop
   vertex -9.86338   45.115  4.56789
   vertex -9.48069   43.115  4.64401
   vertex -9.86338   43.115  4.56789
  endloop
 endfacet
 facet normal -0.555569 5.29832e-07 -0.83147
  outer loop
   vertex -8.77359   43.115  4.35111
   vertex -9.09801   43.115  4.56789
   vertex -9.09801   45.115  4.56789
  endloop
 endfacet
 facet normal 0.980785 -4.67675e-07 -0.19509
  outer loop
   vertex -10.4807   45.115  3.64401
   vertex -10.4046   45.115  4.02669
   vertex -10.4046   43.115  4.02669
  endloop
 endfacet
 facet normal  0.83147 -3.96476e-07 -0.555569
  outer loop
   vertex -10.4046   45.115  4.02669
   vertex -10.1878   45.115  4.35111
   vertex -10.4046   43.115  4.02669
  endloop
 endfacet
 facet normal 0.555569 -2.64916e-07 -0.83147
  outer loop
   vertex -10.1878   45.115  4.35111
   vertex -9.86338   45.115  4.56789
   vertex -9.86338   43.115  4.56789
  endloop
 endfacet
 facet normal -0.195091 1.86053e-07 -0.980785
  outer loop
   vertex -9.48069   45.115  4.64401
   vertex -9.09801   45.115  4.56789
   vertex -9.09801   43.115  4.56789
  endloop
 endfacet
 facet normal 0.195092 -9.30269e-08 -0.980785
  outer loop
   vertex -9.48069   45.115  4.64401
   vertex -9.48069   43.115  4.64401
   vertex -9.86338   45.115  4.56789
  endloop
 endfacet
 facet normal -0.55557 2.64917e-07 -0.831469
  outer loop
   vertex -8.77359   45.115  4.35111
   vertex -8.77359   43.115  4.35111
   vertex -9.09801   45.115  4.56789
  endloop
 endfacet
 facet normal -0.831469 3.96475e-07 -0.555571
  outer loop
   vertex -8.77359   45.115  4.35111
   vertex -8.55681   45.115  4.02669
   vertex -8.77359   43.115  4.35111
  endloop
 endfacet
 facet normal -0.980785 9.35349e-07 -0.195092
  outer loop
   vertex -8.55681   45.115  4.02669
   vertex -8.48069   43.115  3.64401
   vertex -8.55681   43.115  4.02669
  endloop
 endfacet
 facet normal 0.980785 -9.35349e-07 0.195093
  outer loop
   vertex -10.4046   43.115  3.26132
   vertex -10.4807   45.115  3.64401
   vertex -10.4807   43.115  3.64401
  endloop
 endfacet
 facet normal -0.831471 7.92952e-07 0.555569
  outer loop
   vertex -8.55681   43.115  3.26132
   vertex -8.55681   45.115  3.26132
   vertex -8.77359   43.115   2.9369
  endloop
 endfacet
 facet normal -0.980785 9.35349e-07 0.195093
  outer loop
   vertex -8.48069   43.115  3.64401
   vertex -8.55681   45.115  3.26132
   vertex -8.55681   43.115  3.26132
  endloop
 endfacet
 facet normal -0.55557 5.29833e-07  0.83147
  outer loop
   vertex -9.09801   45.115  2.72013
   vertex -9.09801   43.115  2.72013
   vertex -8.77359   43.115   2.9369
  endloop
 endfacet
 facet normal  0.55557 -2.64916e-07  0.83147
  outer loop
   vertex -10.1878   43.115   2.9369
   vertex -9.86338   43.115  2.72013
   vertex -10.1878   45.115   2.9369
  endloop
 endfacet
 facet normal -0.19509 9.30261e-08 0.980785
  outer loop
   vertex -9.48069   43.115  2.64401
   vertex -9.09801   43.115  2.72013
   vertex -9.48069   45.115  2.64401
  endloop
 endfacet
 facet normal  0.19509 -9.30264e-08 0.980785
  outer loop
   vertex -9.48069   43.115  2.64401
   vertex -9.86338   45.115  2.72013
   vertex -9.86338   43.115  2.72013
  endloop
 endfacet
 facet normal 0.831471 -3.96476e-07 0.555569
  outer loop
   vertex -10.4046   43.115  3.26132
   vertex -10.1878   43.115   2.9369
   vertex -10.1878   45.115   2.9369
  endloop
 endfacet
 facet normal -0.831469 3.96476e-07  0.55557
  outer loop
   vertex -8.55681   45.115  3.26132
   vertex -8.77359   45.115   2.9369
   vertex -8.77359   43.115   2.9369
  endloop
 endfacet
 facet normal -0.555571 2.64917e-07 0.831469
  outer loop
   vertex -8.77359   45.115   2.9369
   vertex -9.09801   45.115  2.72013
   vertex -8.77359   43.115   2.9369
  endloop
 endfacet
 facet normal -0.980785 4.67675e-07  0.19509
  outer loop
   vertex -8.48069   43.115  3.64401
   vertex -8.48069   45.115  3.64401
   vertex -8.55681   45.115  3.26132
  endloop
 endfacet
 facet normal  0.19509 -9.30264e-08 0.980785
  outer loop
   vertex -9.48069   45.115  2.64401
   vertex -9.86338   45.115  2.72013
   vertex -9.48069   43.115  2.64401
  endloop
 endfacet
 facet normal -0.195089 1.86052e-07 0.980785
  outer loop
   vertex -9.48069   45.115  2.64401
   vertex -9.09801   43.115  2.72013
   vertex -9.09801   45.115  2.72013
  endloop
 endfacet
 facet normal 0.831471 -3.96476e-07 0.555569
  outer loop
   vertex -10.4046   45.115  3.26132
   vertex -10.4046   43.115  3.26132
   vertex -10.1878   45.115   2.9369
  endloop
 endfacet
 facet normal  0.55557 -2.64916e-07  0.83147
  outer loop
   vertex -9.86338   43.115  2.72013
   vertex -9.86338   45.115  2.72013
   vertex -10.1878   45.115   2.9369
  endloop
 endfacet
 facet normal 0.980785 -4.67675e-07  0.19509
  outer loop
   vertex -10.4046   45.115  3.26132
   vertex -10.4807   45.115  3.64401
   vertex -10.4046   43.115  3.26132
  endloop
 endfacet
 facet normal -0.980785 4.67675e-07 -0.19509
  outer loop
   vertex -8.55681   45.115  4.02669
   vertex -8.48069   45.115  3.64401
   vertex -8.48069   43.115  3.64401
  endloop
 endfacet
 facet normal        0       -1        0
  outer loop
   vertex -25.0046   43.115  4.91132
   vertex -24.7507   43.115 0.619006
   vertex -24.7878   43.115   4.5869
  endloop
 endfacet
 facet normal        0       -1        0
  outer loop
   vertex -24.7507   43.115 0.619006
   vertex -25.0046   43.115  4.91132
   vertex -26.4807   43.115 0.619006
  endloop
 endfacet
 facet normal        0       -1        0
  outer loop
   vertex -26.4807   43.115 0.619006
   vertex -25.0046   43.115  4.91132
   vertex -25.0807   43.115  5.29401
  endloop
 endfacet
 facet normal        0       -1        0
  outer loop
   vertex -24.7507   43.115 0.619006
   vertex -24.0807   43.115  4.29401
   vertex -24.4634   43.115  4.37013
  endloop
 endfacet
 facet normal        0       -1        0
  outer loop
   vertex -21.1007   43.115 0.069006
   vertex -24.7507   43.115 0.619006
   vertex -24.7507   43.115 0.069006
  endloop
 endfacet
 facet normal        0       -1        0
  outer loop
   vertex -24.7507   43.115 0.619006
   vertex -24.4634   43.115  4.37013
   vertex -24.7878   43.115   4.5869
  endloop
 endfacet
 facet normal        0       -1 1.58946e-06
  outer loop
   vertex -25.8246   43.115  7.69401
   vertex -26.4807   43.115  7.69401
   vertex -25.0807   43.115  5.29401
  endloop
 endfacet
 facet normal -2.80232e-06       -1        0
  outer loop
   vertex -24.4634   43.115  6.21789
   vertex -25.8246   43.115   11.954
   vertex -25.8246   43.115  7.69401
  endloop
 endfacet
 facet normal -1.75955e-06       -1 1.17569e-06
  outer loop
   vertex -25.0046   43.115  5.67669
   vertex -24.7878   43.115  6.00111
   vertex -25.8246   43.115  7.69401
  endloop
 endfacet
 facet normal -3.12341e-06       -1 6.21268e-07
  outer loop
   vertex -25.0807   43.115  5.29401
   vertex -25.0046   43.115  5.67669
   vertex -25.8246   43.115  7.69401
  endloop
 endfacet
 facet normal -1.80045e-06       -1 5.3918e-07
  outer loop
   vertex -26.4807   43.115  7.69401
   vertex -26.4807   43.115 0.619006
   vertex -25.0807   43.115  5.29401
  endloop
 endfacet
 facet normal -1.06841e-06       -1 1.599e-06
  outer loop
   vertex -24.7878   43.115  6.00111
   vertex -24.4634   43.115  6.21789
   vertex -25.8246   43.115  7.69401
  endloop
 endfacet
 facet normal        0       -1       -0
  outer loop
   vertex -24.0807   43.115  4.29401
   vertex -24.7507   43.115 0.619006
   vertex  -23.698   43.115  4.37013
  endloop
 endfacet
 facet normal        0       -1       -0
  outer loop
   vertex  -23.698   43.115  4.37013
   vertex -24.7507   43.115 0.619006
   vertex -23.3736   43.115   4.5869
  endloop
 endfacet
 facet normal        0       -1        0
  outer loop
   vertex -23.1568   43.115  4.91132
   vertex -21.1007   43.115 0.069006
   vertex -23.0807   43.115  5.29401
  endloop
 endfacet
 facet normal        0       -1        0
  outer loop
   vertex -21.1007   43.115 0.069006
   vertex -23.1568   43.115  4.91132
   vertex -23.3736   43.115   4.5869
  endloop
 endfacet
 facet normal        0       -1        0
  outer loop
   vertex -23.0807   43.115  5.29401
   vertex -21.1007   43.115 0.069006
   vertex -21.1007   43.115   11.954
  endloop
 endfacet
 facet normal        0       -1        0
  outer loop
   vertex -21.1007   43.115 0.069006
   vertex -23.3736   43.115   4.5869
   vertex -24.7507   43.115 0.619006
  endloop
 endfacet
 facet normal -8.07528e-07       -1 3.65645e-07
  outer loop
   vertex  -23.698   43.115  6.21789
   vertex -21.1007   43.115   11.954
   vertex -25.8246   43.115   11.954
  endloop
 endfacet
 facet normal 1.42814e-07       -1 7.17978e-07
  outer loop
   vertex  -23.698   43.115  6.21789
   vertex -25.8246   43.115   11.954
   vertex -24.0807   43.115  6.29401
  endloop
 endfacet
 facet normal        0       -1        0
  outer loop
   vertex -23.3736   43.115  6.00111
   vertex -23.1568   43.115  5.67669
   vertex -21.1007   43.115   11.954
  endloop
 endfacet
 facet normal        0       -1        0
  outer loop
   vertex -21.1007   43.115   11.954
   vertex -23.1568   43.115  5.67669
   vertex -23.0807   43.115  5.29401
  endloop
 endfacet
 facet normal        0       -1        0
  outer loop
   vertex -23.3736   43.115  6.00111
   vertex -21.1007   43.115   11.954
   vertex  -23.698   43.115  6.21789
  endloop
 endfacet
 facet normal -1.2632e-07       -1 6.35053e-07
  outer loop
   vertex -24.0807   43.115  6.29401
   vertex -25.8246   43.115   11.954
   vertex -24.4634   43.115  6.21789
  endloop
 endfacet
 facet normal        1 -9.53676e-07        0
  outer loop
   vertex -21.1007   43.115   11.954
   vertex -21.1007   43.115 0.069006
   vertex -21.1007   45.115 0.069006
  endloop
 endfacet
 facet normal        1 -9.53676e-07        0
  outer loop
   vertex -21.1007   45.115 0.069006
   vertex -21.1007   45.115   11.954
   vertex -21.1007   43.115   11.954
  endloop
 endfacet
 facet normal  0.83147 -7.92952e-07 -0.555569
  outer loop
   vertex -24.7878   45.115  6.00111
   vertex -24.7878   43.115  6.00111
   vertex -25.0046   43.115  5.67669
  endloop
 endfacet
 facet normal 0.980786        0 -0.195085
  outer loop
   vertex -25.0046   43.115  5.67669
   vertex -25.0807   43.115  5.29401
   vertex -25.0807   45.115  5.29401
  endloop
 endfacet
 facet normal 0.555568 -5.29831e-07 -0.831471
  outer loop
   vertex -24.7878   43.115  6.00111
   vertex -24.7878   45.115  6.00111
   vertex -24.4634   43.115  6.21789
  endloop
 endfacet
 facet normal -0.195089 1.86052e-07 -0.980785
  outer loop
   vertex -24.0807   45.115  6.29401
   vertex  -23.698   43.115  6.21789
   vertex -24.0807   43.115  6.29401
  endloop
 endfacet
 facet normal -0.83147        0 -0.555569
  outer loop
   vertex -23.3736   43.115  6.00111
   vertex -23.1568   45.115  5.67669
   vertex -23.1568   43.115  5.67669
  endloop
 endfacet
 facet normal  0.19509 -1.86053e-07 -0.980785
  outer loop
   vertex -24.4634   45.115  6.21789
   vertex -24.0807   43.115  6.29401
   vertex -24.4634   43.115  6.21789
  endloop
 endfacet
 facet normal -0.555568 5.29831e-07 -0.831471
  outer loop
   vertex -23.3736   43.115  6.00111
   vertex  -23.698   43.115  6.21789
   vertex  -23.698   45.115  6.21789
  endloop
 endfacet
 facet normal 0.980785 -9.3535e-07 -0.19509
  outer loop
   vertex -25.0807   45.115  5.29401
   vertex -25.0046   45.115  5.67669
   vertex -25.0046   43.115  5.67669
  endloop
 endfacet
 facet normal  0.83147 -7.92952e-07 -0.555569
  outer loop
   vertex -25.0046   45.115  5.67669
   vertex -24.7878   45.115  6.00111
   vertex -25.0046   43.115  5.67669
  endloop
 endfacet
 facet normal 0.555568 -5.29831e-07 -0.831471
  outer loop
   vertex -24.7878   45.115  6.00111
   vertex -24.4634   45.115  6.21789
   vertex -24.4634   43.115  6.21789
  endloop
 endfacet
 facet normal -0.195089 1.86052e-07 -0.980785
  outer loop
   vertex -24.0807   45.115  6.29401
   vertex  -23.698   45.115  6.21789
   vertex  -23.698   43.115  6.21789
  endloop
 endfacet
 facet normal  0.19509 -1.86053e-07 -0.980785
  outer loop
   vertex -24.0807   43.115  6.29401
   vertex -24.4634   45.115  6.21789
   vertex -24.0807   45.115  6.29401
  endloop
 endfacet
 facet normal -0.55557       -0 -0.831469
  outer loop
   vertex -23.3736   45.115  6.00111
   vertex -23.3736   43.115  6.00111
   vertex  -23.698   45.115  6.21789
  endloop
 endfacet
 facet normal -0.83147        0 -0.555569
  outer loop
   vertex -23.3736   43.115  6.00111
   vertex -23.3736   45.115  6.00111
   vertex -23.1568   45.115  5.67669
  endloop
 endfacet
 facet normal -0.980786       -0 -0.195085
  outer loop
   vertex -23.1568   45.115  5.67669
   vertex -23.0807   43.115  5.29401
   vertex -23.1568   43.115  5.67669
  endloop
 endfacet
 facet normal 0.980786        0 0.195085
  outer loop
   vertex -25.0046   43.115  4.91132
   vertex -25.0807   45.115  5.29401
   vertex -25.0807   43.115  5.29401
  endloop
 endfacet
 facet normal -0.83147        0 0.555569
  outer loop
   vertex -23.1568   43.115  4.91132
   vertex -23.1568   45.115  4.91132
   vertex -23.3736   43.115   4.5869
  endloop
 endfacet
 facet normal -0.980786        0 0.195085
  outer loop
   vertex -23.0807   43.115  5.29401
   vertex -23.1568   45.115  4.91132
   vertex -23.1568   43.115  4.91132
  endloop
 endfacet
 facet normal -0.555569 5.29832e-07  0.83147
  outer loop
   vertex  -23.698   45.115  4.37013
   vertex  -23.698   43.115  4.37013
   vertex -23.3736   43.115   4.5869
  endloop
 endfacet
 facet normal 0.555569 -5.29832e-07  0.83147
  outer loop
   vertex -24.7878   43.115   4.5869
   vertex -24.4634   43.115  4.37013
   vertex -24.7878   45.115   4.5869
  endloop
 endfacet
 facet normal -0.195088 1.86051e-07 0.980786
  outer loop
   vertex -24.0807   43.115  4.29401
   vertex  -23.698   43.115  4.37013
   vertex -24.0807   45.115  4.29401
  endloop
 endfacet
 facet normal 0.195089 -1.86052e-07 0.980785
  outer loop
   vertex -24.0807   43.115  4.29401
   vertex -24.4634   45.115  4.37013
   vertex -24.4634   43.115  4.37013
  endloop
 endfacet
 facet normal  0.83147 -7.92952e-07 0.555569
  outer loop
   vertex -25.0046   43.115  4.91132
   vertex -24.7878   43.115   4.5869
   vertex -24.7878   45.115   4.5869
  endloop
 endfacet
 facet normal -0.83147        0 0.555569
  outer loop
   vertex -23.1568   45.115  4.91132
   vertex -23.3736   45.115   4.5869
   vertex -23.3736   43.115   4.5869
  endloop
 endfacet
 facet normal -0.555571        0 0.831469
  outer loop
   vertex -23.3736   45.115   4.5869
   vertex  -23.698   45.115  4.37013
   vertex -23.3736   43.115   4.5869
  endloop
 endfacet
 facet normal -0.980785 9.3535e-07  0.19509
  outer loop
   vertex -23.0807   43.115  5.29401
   vertex -23.0807   45.115  5.29401
   vertex -23.1568   45.115  4.91132
  endloop
 endfacet
 facet normal -0.195088 1.86051e-07 0.980786
  outer loop
   vertex -24.0807   45.115  4.29401
   vertex  -23.698   43.115  4.37013
   vertex  -23.698   45.115  4.37013
  endloop
 endfacet
 facet normal  0.83147 -7.92952e-07 0.555569
  outer loop
   vertex -25.0046   45.115  4.91132
   vertex -25.0046   43.115  4.91132
   vertex -24.7878   45.115   4.5869
  endloop
 endfacet
 facet normal 0.195089 -1.86052e-07 0.980785
  outer loop
   vertex -24.0807   45.115  4.29401
   vertex -24.4634   45.115  4.37013
   vertex -24.0807   43.115  4.29401
  endloop
 endfacet
 facet normal 0.555569 -5.29832e-07  0.83147
  outer loop
   vertex -24.4634   45.115  4.37013
   vertex -24.7878   45.115   4.5869
   vertex -24.4634   43.115  4.37013
  endloop
 endfacet
 facet normal 0.980785 -9.3535e-07  0.19509
  outer loop
   vertex -25.0046   45.115  4.91132
   vertex -25.0807   45.115  5.29401
   vertex -25.0046   43.115  4.91132
  endloop
 endfacet
 facet normal -0.980785 9.3535e-07 -0.19509
  outer loop
   vertex -23.1568   45.115  5.67669
   vertex -23.0807   45.115  5.29401
   vertex -23.0807   43.115  5.29401
  endloop
 endfacet
endsolid 1 written by HOOPS Exchange
