solid 1
 facet normal       -0        0        1
  outer loop
   vertex -23.9507   15.025 0.769006
   vertex -12.4607    8.125 0.769006
   vertex -12.3607   15.025 0.769006
  endloop
 endfacet
 facet normal        0       -0        1
  outer loop
   vertex -12.3607    8.125 0.769006
   vertex -12.3607   15.025 0.769006
   vertex -12.4607    8.125 0.769006
  endloop
 endfacet
 facet normal        0        0        1
  outer loop
   vertex -12.4607    8.125 0.769006
   vertex -21.2007    5.114 0.769006
   vertex -12.4607  5.11499 0.769006
  endloop
 endfacet
 facet normal        0        0        1
  outer loop
   vertex -12.4607    8.125 0.769006
   vertex -23.9507   15.025 0.769006
   vertex -21.2007    5.114 0.769006
  endloop
 endfacet
 facet normal       -0        0        1
  outer loop
   vertex -23.9507    5.114 0.769006
   vertex -21.2007    5.114 0.769006
   vertex -23.9507   15.025 0.769006
  endloop
 endfacet
 facet normal        0       -1        0
  outer loop
   vertex -23.9507   15.025 0.769006
   vertex -21.2007   15.025  2.99401
   vertex -23.9507   15.025  2.99401
  endloop
 endfacet
 facet normal        0       -1       -0
  outer loop
   vertex -21.2007   15.025  2.99401
   vertex -23.9507   15.025 0.769006
   vertex -12.3607   15.025 0.769006
  endloop
 endfacet
 facet normal        0       -1        0
  outer loop
   vertex -21.2007   15.025  5.89401
   vertex -21.2007   15.025  4.44401
   vertex -20.4557   15.025  4.61901
  endloop
 endfacet
 facet normal        0       -1        0
  outer loop
   vertex -21.2007   15.025  4.44401
   vertex -20.4557   15.025  3.75493
   vertex -20.4557   15.025  4.61901
  endloop
 endfacet
 facet normal       -0       -1        0
  outer loop
   vertex -13.1557   15.025  5.89401
   vertex -20.5057   15.025  5.89401
   vertex -20.4557   15.025  4.61901
  endloop
 endfacet
 facet normal        0       -1        0
  outer loop
   vertex -21.2007   15.025  5.89401
   vertex -20.4557   15.025  4.61901
   vertex -20.5057   15.025  5.89401
  endloop
 endfacet
 facet normal        0       -1        0
  outer loop
   vertex -21.2007   15.025  2.99401
   vertex -12.3607   15.025 0.769006
   vertex -20.4557   15.025  3.75493
  endloop
 endfacet
 facet normal        0       -1        0
  outer loop
   vertex -22.6922   15.025   11.204
   vertex -22.5206   15.025  7.59401
   vertex -22.4639   15.025  7.59401
  endloop
 endfacet
 facet normal        0       -1        0
  outer loop
   vertex -22.6922   15.025   11.204
   vertex -22.4639   15.025  7.59401
   vertex -18.9182   15.025  8.39401
  endloop
 endfacet
 facet normal       -0       -1        0
  outer loop
   vertex -20.5057   15.025  7.29401
   vertex -22.4639   15.025  7.59401
   vertex -21.2007   15.025  5.89401
  endloop
 endfacet
 facet normal        0       -1       -0
  outer loop
   vertex -20.5057   15.025  7.29401
   vertex -21.2007   15.025  5.89401
   vertex -20.5057   15.025  5.89401
  endloop
 endfacet
 facet normal        0       -1        0
  outer loop
   vertex -20.5057   15.025  7.29401
   vertex -18.9182   15.025  8.39401
   vertex -22.4639   15.025  7.59401
  endloop
 endfacet
 facet normal        0       -1        0
  outer loop
   vertex -16.8307   15.025  7.29401
   vertex -18.9182   15.025  8.39401
   vertex -20.5057   15.025  7.29401
  endloop
 endfacet
 facet normal        0       -1        0
  outer loop
   vertex -21.2007   15.025  5.89401
   vertex -22.4639   15.025  7.59401
   vertex -22.3831   15.025  5.89401
  endloop
 endfacet
 facet normal        0       -1        0
  outer loop
   vertex -22.6922   15.025   11.204
   vertex -18.9182   15.025  8.39401
   vertex -18.9182   15.025   10.826
  endloop
 endfacet
 facet normal       -0       -1        0
  outer loop
   vertex -20.4557   15.025  3.75493
   vertex -21.2007   15.025  4.44401
   vertex -21.2007   15.025  2.99401
  endloop
 endfacet
 facet normal       -0       -1       -0
  outer loop
   vertex -12.4607   15.025  3.04401
   vertex -13.1557   15.025  3.75493
   vertex -12.3607   15.025 0.769006
  endloop
 endfacet
 facet normal        0       -1       -0
  outer loop
   vertex -13.1557   15.025  5.89401
   vertex -20.4557   15.025  4.61901
   vertex -13.1557   15.025  4.61901
  endloop
 endfacet
 facet normal        0       -1        0
  outer loop
   vertex -13.1557   15.025  4.61901
   vertex -12.4607   15.025  4.46901
   vertex -12.4607   15.025  5.89401
  endloop
 endfacet
 facet normal       -0       -1       -0
  outer loop
   vertex -12.3607   15.025  3.04401
   vertex -12.4607   15.025  3.04401
   vertex -12.3607   15.025 0.769006
  endloop
 endfacet
 facet normal        0       -1        0
  outer loop
   vertex -13.1557   15.025  4.61901
   vertex -12.4607   15.025  5.89401
   vertex -13.1557   15.025  5.89401
  endloop
 endfacet
 facet normal        0       -1        0
  outer loop
   vertex -16.6132   15.025   10.826
   vertex -16.6132   15.025  8.39401
   vertex -13.1557   15.025  7.29401
  endloop
 endfacet
 facet normal        0       -1        0
  outer loop
   vertex -16.6132   15.025   10.826
   vertex -10.8694   15.025   11.204
   vertex -22.6922   15.025   11.204
  endloop
 endfacet
 facet normal        0       -1        0
  outer loop
   vertex -12.4607   15.025  5.89401
   vertex -13.1557   15.025  7.29401
   vertex -13.1557   15.025  5.89401
  endloop
 endfacet
 facet normal        0       -1        0
  outer loop
   vertex -13.1557   15.025  7.29401
   vertex -12.4607   15.025  5.89401
   vertex -11.1218   15.025  5.89401
  endloop
 endfacet
 facet normal        0       -1        0
  outer loop
   vertex -13.1557   15.025  7.29401
   vertex -10.8694   15.025   11.204
   vertex -16.6132   15.025   10.826
  endloop
 endfacet
 facet normal        0       -1        0
  outer loop
   vertex -10.8694   15.025   11.204
   vertex -13.1557   15.025  7.29401
   vertex -11.1218   15.025  5.89401
  endloop
 endfacet
 facet normal        0       -1        0
  outer loop
   vertex -13.1557   15.025  7.29401
   vertex -16.6132   15.025  8.39401
   vertex -16.8307   15.025  7.29401
  endloop
 endfacet
 facet normal        0       -1        0
  outer loop
   vertex -16.6132   15.025   10.826
   vertex -22.6922   15.025   11.204
   vertex -18.9182   15.025   10.826
  endloop
 endfacet
 facet normal        0       -1       -0
  outer loop
   vertex -12.4607   15.025  4.46901
   vertex -13.1557   15.025  3.75493
   vertex -12.4607   15.025  3.75651
  endloop
 endfacet
 facet normal        0       -1        0
  outer loop
   vertex -20.4557   15.025  3.75493
   vertex -12.3607   15.025 0.769006
   vertex -13.1557   15.025  3.75493
  endloop
 endfacet
 facet normal        0       -1        0
  outer loop
   vertex -12.4607   15.025  3.04401
   vertex -12.4607   15.025  3.75651
   vertex -13.1557   15.025  3.75493
  endloop
 endfacet
 facet normal        0       -1        0
  outer loop
   vertex -13.1557   15.025  3.75493
   vertex -12.4607   15.025  4.46901
   vertex -13.1557   15.025  4.61901
  endloop
 endfacet
 facet normal        0       -1        0
  outer loop
   vertex -18.9182   15.025  8.39401
   vertex -16.8307   15.025  7.29401
   vertex -16.6132   15.025  8.39401
  endloop
 endfacet
 facet normal        1        0        0
  outer loop
   vertex -23.9507    5.114 0.769006
   vertex -23.9507   15.025 0.769006
   vertex -23.9507   15.025  2.99401
  endloop
 endfacet
 facet normal        1        0        0
  outer loop
   vertex -23.9507   15.025  2.99401
   vertex -23.9507    5.114  2.99401
   vertex -23.9507    5.114 0.769006
  endloop
 endfacet
 facet normal       -1       -0       -0
  outer loop
   vertex -21.2007   15.625  5.89401
   vertex -21.2007   15.625  2.99401
   vertex -21.2007   15.025  5.89401
  endloop
 endfacet
 facet normal       -1        0        0
  outer loop
   vertex -21.2007   15.025  2.99401
   vertex -21.2007   15.025  5.89401
   vertex -21.2007   15.625  2.99401
  endloop
 endfacet
 facet normal        0       -1 1.05964e-06
  outer loop
   vertex -12.4607  5.11499 0.719006
   vertex -11.6807  5.11499 0.269006
   vertex -11.6807  5.11499 0.719006
  endloop
 endfacet
 facet normal -4.50791e-07       -1 2.78267e-07
  outer loop
   vertex -21.2007    5.115 0.269006
   vertex -11.6807  5.11499 0.269006
   vertex -12.4607  5.11499 0.719006
  endloop
 endfacet
 facet normal -2.18232e-07       -1       -0
  outer loop
   vertex -12.4607  5.11499 0.769006
   vertex -21.2007  5.11499 0.769006
   vertex -12.4607  5.11499 0.719006
  endloop
 endfacet
 facet normal -2.40055e-07       -1 -3.8147e-06
  outer loop
   vertex -21.2007    5.115 0.269006
   vertex -12.4607  5.11499 0.719006
   vertex -21.2007  5.11499 0.769006
  endloop
 endfacet
 facet normal        0        0       -1
  outer loop
   vertex -23.9507    5.114 0.269006
   vertex -24.5507   15.625 0.269006
   vertex -21.2007    5.115 0.269006
  endloop
 endfacet
 facet normal        0        0       -1
  outer loop
   vertex -24.5507    5.114 0.269006
   vertex -24.5507   15.625 0.269006
   vertex -23.9507    5.114 0.269006
  endloop
 endfacet
 facet normal        0        0       -1
  outer loop
   vertex -11.6807   15.025 0.269006
   vertex -11.6807  5.11499 0.269006
   vertex -21.2007    5.115 0.269006
  endloop
 endfacet
 facet normal        0        0       -1
  outer loop
   vertex -11.6807   15.025 0.269006
   vertex -24.5507   15.625 0.269006
   vertex -11.6807   15.625 0.269006
  endloop
 endfacet
 facet normal        0        0       -1
  outer loop
   vertex -21.2007    5.115 0.269006
   vertex -24.5507   15.625 0.269006
   vertex -11.6807   15.025 0.269006
  endloop
 endfacet
 facet normal        0        1        0
  outer loop
   vertex -11.6807   15.625  3.04401
   vertex -11.6807   15.625 0.269006
   vertex -12.4607   15.625  3.04401
  endloop
 endfacet
 facet normal        0        1        0
  outer loop
   vertex -16.6132   15.625  8.39401
   vertex -12.4607   15.625  5.89401
   vertex -21.2007   15.625  5.89401
  endloop
 endfacet
 facet normal       -0        1        0
  outer loop
   vertex -21.2007   15.625  5.89401
   vertex -12.4607   15.625  5.89401
   vertex -12.4607   15.625  3.04401
  endloop
 endfacet
 facet normal        0        1       -0
  outer loop
   vertex -10.5719   15.625  5.89401
   vertex -12.4607   15.625  5.89401
   vertex -10.2933   15.625   11.754
  endloop
 endfacet
 facet normal        0        1        0
  outer loop
   vertex -10.2933   15.625   11.754
   vertex -12.4607   15.625  5.89401
   vertex -16.6132   15.625  8.39401
  endloop
 endfacet
 facet normal        0        1        0
  outer loop
   vertex -16.6132   15.625  8.39401
   vertex -16.6132   15.625   10.826
   vertex -10.2933   15.625   11.754
  endloop
 endfacet
 facet normal        0        1        0
  outer loop
   vertex -16.6132   15.625  8.39401
   vertex -21.2007   15.625  5.89401
   vertex -18.9182   15.625  8.39401
  endloop
 endfacet
 facet normal        0        1        0
  outer loop
   vertex -10.2933   15.625   11.754
   vertex -16.6132   15.625   10.826
   vertex -23.2683   15.625   11.754
  endloop
 endfacet
 facet normal        0        1        0
  outer loop
   vertex -12.4607   15.625  3.04401
   vertex -11.6807   15.625 0.269006
   vertex -21.2007   15.625  2.99401
  endloop
 endfacet
 facet normal       -0        1        0
  outer loop
   vertex -22.4639   15.625  7.59401
   vertex -18.9182   15.625  8.39401
   vertex -21.2007   15.625  5.89401
  endloop
 endfacet
 facet normal        0        1        0
  outer loop
   vertex -24.5507   15.625 0.269006
   vertex -24.5507   15.625  2.99401
   vertex -21.2007   15.625  2.99401
  endloop
 endfacet
 facet normal        0        1        0
  outer loop
   vertex -21.2007   15.625  2.99401
   vertex -11.6807   15.625 0.269006
   vertex -24.5507   15.625 0.269006
  endloop
 endfacet
 facet normal        0        1        0
  outer loop
   vertex -22.4639   15.625  7.59401
   vertex -18.9182   15.625   10.826
   vertex -18.9182   15.625  8.39401
  endloop
 endfacet
 facet normal        0        1        0
  outer loop
   vertex -22.4639   15.625  7.59401
   vertex -21.2007   15.625  5.89401
   vertex -22.3831   15.625  5.89401
  endloop
 endfacet
 facet normal        0        1        0
  outer loop
   vertex -22.4639   15.625  7.59401
   vertex -23.0706   15.625  7.59401
   vertex -23.2683   15.625   11.754
  endloop
 endfacet
 facet normal        0        1       -0
  outer loop
   vertex -22.4639   15.625  7.59401
   vertex -23.2683   15.625   11.754
   vertex -18.9182   15.625   10.826
  endloop
 endfacet
 facet normal        0        1       -0
  outer loop
   vertex -18.9182   15.625   10.826
   vertex -23.2683   15.625   11.754
   vertex -16.6132   15.625   10.826
  endloop
 endfacet
 facet normal        0        1        0
  outer loop
   vertex -21.2007   15.625  5.89401
   vertex -12.4607   15.625  3.04401
   vertex -21.2007   15.625  2.99401
  endloop
 endfacet
 facet normal        1        0        0
  outer loop
   vertex -11.6807   15.025  3.04401
   vertex -11.6807   15.025 0.269006
   vertex -11.6807   15.625 0.269006
  endloop
 endfacet
 facet normal        1        0       -0
  outer loop
   vertex -11.6807   15.625 0.269006
   vertex -11.6807   15.625  3.04401
   vertex -11.6807   15.025  3.04401
  endloop
 endfacet
 facet normal        1        0        0
  outer loop
   vertex -11.6807   15.025  3.04401
   vertex -11.6807    8.125 0.719006
   vertex -11.6807   15.025 0.269006
  endloop
 endfacet
 facet normal        1        0 -1.69542e-05
  outer loop
   vertex -11.6807  5.11499 0.719006
   vertex -11.6807  5.11499 0.269006
   vertex -11.6807    8.125 0.719006
  endloop
 endfacet
 facet normal        1 -7.69868e-07 -1.18046e-05
  outer loop
   vertex -11.6807   15.025 0.269006
   vertex -11.6807    8.125 0.719006
   vertex -11.6807  5.11499 0.269006
  endloop
 endfacet
 facet normal        1 -8.29282e-07 2.4611e-06
  outer loop
   vertex -11.6807   15.025  3.04401
   vertex -11.6807    8.125  3.04401
   vertex -11.6807    8.125 0.719006
  endloop
 endfacet
 facet normal       -1 8.29282e-07 8.38395e-07
  outer loop
   vertex -12.3607   15.025 0.769006
   vertex -12.3607    8.125 0.769006
   vertex -12.3607    8.125  3.04401
  endloop
 endfacet
 facet normal       -1 5.52855e-07        0
  outer loop
   vertex -12.3607    8.125  3.04401
   vertex -12.3607   15.025  3.04401
   vertex -12.3607   15.025 0.769006
  endloop
 endfacet
 facet normal        0        0        1
  outer loop
   vertex -12.3607   15.025  3.04401
   vertex -12.3607    8.125  3.04401
   vertex -11.6807    8.125  3.04401
  endloop
 endfacet
 facet normal        0        0        1
  outer loop
   vertex -11.6807   15.625  3.04401
   vertex -12.4607   15.625  3.04401
   vertex -12.3607   15.025  3.04401
  endloop
 endfacet
 facet normal        0        0        1
  outer loop
   vertex -12.4607   15.025  3.04401
   vertex -12.3607   15.025  3.04401
   vertex -12.4607   15.625  3.04401
  endloop
 endfacet
 facet normal        0        0        1
  outer loop
   vertex -12.3607   15.025  3.04401
   vertex -11.6807   15.025  3.04401
   vertex -11.6807   15.625  3.04401
  endloop
 endfacet
 facet normal        0       -0        1
  outer loop
   vertex -11.6807    8.125  3.04401
   vertex -11.6807   15.025  3.04401
   vertex -12.3607   15.025  3.04401
  endloop
 endfacet
 facet normal        0 -0.910472  0.41357
  outer loop
   vertex -20.4557  14.9828  4.35558
   vertex -13.1557  14.8725  4.11268
   vertex -13.1557  14.9828  4.35558
  endloop
 endfacet
 facet normal        0 -0.987418 0.158131
  outer loop
   vertex -20.4557  14.9828  4.35558
   vertex -13.1557   15.025  4.61901
   vertex -20.4557   15.025  4.61901
  endloop
 endfacet
 facet normal        0 -0.987418 0.158131
  outer loop
   vertex -13.1557  14.9828  4.35558
   vertex -13.1557   15.025  4.61901
   vertex -20.4557  14.9828  4.35558
  endloop
 endfacet
 facet normal        0 -0.910472  0.41357
  outer loop
   vertex -20.4557  14.9828  4.35558
   vertex -20.4557  14.8725  4.11268
   vertex -13.1557  14.8725  4.11268
  endloop
 endfacet
 facet normal        0 -0.572263  0.82007
  outer loop
   vertex -20.4557  14.7018   3.9076
   vertex -13.1557  14.4831  3.75493
   vertex -13.1557  14.7018   3.9076
  endloop
 endfacet
 facet normal        0 -0.768723 0.639581
  outer loop
   vertex -20.4557  14.8725  4.11268
   vertex -20.4557  14.7018   3.9076
   vertex -13.1557  14.7018   3.9076
  endloop
 endfacet
 facet normal        0 -0.572263  0.82007
  outer loop
   vertex -20.4557  14.4831  3.75493
   vertex -13.1557  14.4831  3.75493
   vertex -20.4557  14.7018   3.9076
  endloop
 endfacet
 facet normal        0 -0.768723 0.639581
  outer loop
   vertex -13.1557  14.8725  4.11268
   vertex -20.4557  14.8725  4.11268
   vertex -13.1557  14.7018   3.9076
  endloop
 endfacet
 facet normal        0        0        1
  outer loop
   vertex -18.9182   15.625  8.39401
   vertex -18.9182   15.025  8.39401
   vertex -16.6132   15.025  8.39401
  endloop
 endfacet
 facet normal        0       -0        1
  outer loop
   vertex -16.6132   15.025  8.39401
   vertex -16.6132   15.625  8.39401
   vertex -18.9182   15.625  8.39401
  endloop
 endfacet
 facet normal        1        0        0
  outer loop
   vertex -18.9182   15.025   10.826
   vertex -18.9182   15.025  8.39401
   vertex -18.9182   15.625  8.39401
  endloop
 endfacet
 facet normal        1        0       -0
  outer loop
   vertex -18.9182   15.625  8.39401
   vertex -18.9182   15.625   10.826
   vertex -18.9182   15.025   10.826
  endloop
 endfacet
 facet normal        0        0       -1
  outer loop
   vertex -16.6132   15.025   10.826
   vertex -18.9182   15.025   10.826
   vertex -18.9182   15.625   10.826
  endloop
 endfacet
 facet normal        0        0       -1
  outer loop
   vertex -18.9182   15.625   10.826
   vertex -16.6132   15.625   10.826
   vertex -16.6132   15.025   10.826
  endloop
 endfacet
 facet normal       -1        0        0
  outer loop
   vertex -16.6132   15.625  8.39401
   vertex -16.6132   15.025  8.39401
   vertex -16.6132   15.025   10.826
  endloop
 endfacet
 facet normal       -1        0        0
  outer loop
   vertex -16.6132   15.025   10.826
   vertex -16.6132   15.625   10.826
   vertex -16.6132   15.625  8.39401
  endloop
 endfacet
 facet normal -0.998872       -0 -0.0474747
  outer loop
   vertex -23.0706   15.625  7.59401
   vertex -23.0706     7.26  7.59401
   vertex -23.2683   15.625   11.754
  endloop
 endfacet
 facet normal -0.998872        0 -0.0474747
  outer loop
   vertex -23.2683     7.26   11.754
   vertex -23.2683   15.625   11.754
   vertex -23.0706     7.26  7.59401
  endloop
 endfacet
 facet normal 0.998872        0 0.0474748
  outer loop
   vertex -22.6922   15.025   11.204
   vertex -22.5206     6.76  7.59401
   vertex -22.5206   15.025  7.59401
  endloop
 endfacet
 facet normal 0.998872        0 0.0474748
  outer loop
   vertex -22.5206     6.76  7.59401
   vertex -22.6922   15.025   11.204
   vertex -22.6922     6.76   11.204
  endloop
 endfacet
 facet normal        1        0        0
  outer loop
   vertex -12.4607   15.025  3.04401
   vertex -12.4607   15.625  3.04401
   vertex -12.4607   15.625  5.89401
  endloop
 endfacet
 facet normal        1        0        0
  outer loop
   vertex -12.4607   15.625  5.89401
   vertex -12.4607   15.025  5.89401
   vertex -12.4607   15.025  3.04401
  endloop
 endfacet
 facet normal       -0       -0       -1
  outer loop
   vertex -9.86942     6.76   11.204
   vertex -9.86942     1.45   11.204
   vertex -10.8694     6.76   11.204
  endloop
 endfacet
 facet normal       -0       -0       -1
  outer loop
   vertex -10.8694   15.025   11.204
   vertex -10.8694     6.76   11.204
   vertex -22.6922   15.025   11.204
  endloop
 endfacet
 facet normal        0        0       -1
  outer loop
   vertex -9.86942     1.45   11.204
   vertex -22.6922     6.76   11.204
   vertex -10.8694     6.76   11.204
  endloop
 endfacet
 facet normal        0        0       -1
  outer loop
   vertex -23.6922     1.45   11.204
   vertex -23.6922     6.76   11.204
   vertex -22.6922     6.76   11.204
  endloop
 endfacet
 facet normal        0        0       -1
  outer loop
   vertex -22.6922     6.76   11.204
   vertex -22.6922   15.025   11.204
   vertex -10.8694     6.76   11.204
  endloop
 endfacet
 facet normal        0        0       -1
  outer loop
   vertex -23.6922     1.45   11.204
   vertex -22.6922     6.76   11.204
   vertex -9.86942     1.45   11.204
  endloop
 endfacet
 facet normal       -0        0        1
  outer loop
   vertex -24.7183     7.26   11.754
   vertex -24.7183     1.45   11.754
   vertex -23.2683     7.26   11.754
  endloop
 endfacet
 facet normal        0        0        1
  outer loop
   vertex -23.2683     7.26   11.754
   vertex -10.2933     7.26   11.754
   vertex -10.2933   15.625   11.754
  endloop
 endfacet
 facet normal        0        0        1
  outer loop
   vertex -24.7183     1.45   11.754
   vertex -8.84328     1.45   11.754
   vertex -23.2683     7.26   11.754
  endloop
 endfacet
 facet normal       -0        0        1
  outer loop
   vertex -10.2933     7.26   11.754
   vertex -8.84328     1.45   11.754
   vertex -8.84328     7.26   11.754
  endloop
 endfacet
 facet normal        0        0        1
  outer loop
   vertex -8.84328     1.45   11.754
   vertex -10.2933     7.26   11.754
   vertex -23.2683     7.26   11.754
  endloop
 endfacet
 facet normal        0        0        1
  outer loop
   vertex -10.2933   15.625   11.754
   vertex -23.2683   15.625   11.754
   vertex -23.2683     7.26   11.754
  endloop
 endfacet
 facet normal        0        0       -1
  outer loop
   vertex -11.1218   15.025  5.89401
   vertex -12.4607   15.025  5.89401
   vertex -12.4607   15.625  5.89401
  endloop
 endfacet
 facet normal        0        0       -1
  outer loop
   vertex -10.5719     7.26  5.89401
   vertex -11.1218   15.025  5.89401
   vertex -10.5719   15.625  5.89401
  endloop
 endfacet
 facet normal        0        0       -1
  outer loop
   vertex -12.4607   15.625  5.89401
   vertex -10.5719   15.625  5.89401
   vertex -11.1218   15.025  5.89401
  endloop
 endfacet
 facet normal        0        0       -1
  outer loop
   vertex -11.1218   15.025  5.89401
   vertex -10.5719     7.26  5.89401
   vertex -11.1218     6.76  5.89401
  endloop
 endfacet
 facet normal       -0        0       -1
  outer loop
   vertex -9.84682     7.26  5.89401
   vertex -10.1218     6.76  5.89401
   vertex -10.5719     7.26  5.89401
  endloop
 endfacet
 facet normal        0        0       -1
  outer loop
   vertex -10.6218     6.76  5.89401
   vertex -10.5719     7.26  5.89401
   vertex -10.1218     6.76  5.89401
  endloop
 endfacet
 facet normal       -0       -0       -1
  outer loop
   vertex -9.12179     7.26  5.89401
   vertex -9.12179     1.45  5.89401
   vertex -9.84682     7.26  5.89401
  endloop
 endfacet
 facet normal        0        0       -1
  outer loop
   vertex -9.12179     1.45  5.89401
   vertex -10.1218     1.45  5.89401
   vertex -9.84682     7.26  5.89401
  endloop
 endfacet
 facet normal        0        0       -1
  outer loop
   vertex -10.6218     6.76  5.89401
   vertex -11.1218     6.76  5.89401
   vertex -10.5719     7.26  5.89401
  endloop
 endfacet
 facet normal        0        0       -1
  outer loop
   vertex -10.1218     1.45  5.89401
   vertex -10.1218     6.76  5.89401
   vertex -9.84682     7.26  5.89401
  endloop
 endfacet
 facet normal 0.998872        0 -0.047475
  outer loop
   vertex -10.2933   15.625   11.754
   vertex -10.2933     7.26   11.754
   vertex -10.5719   15.625  5.89401
  endloop
 endfacet
 facet normal 0.998872        0 -0.047475
  outer loop
   vertex -10.5719     7.26  5.89401
   vertex -10.5719   15.625  5.89401
   vertex -10.2933     7.26   11.754
  endloop
 endfacet
 facet normal -0.998872        0 0.0474749
  outer loop
   vertex -11.1218     6.76  5.89401
   vertex -10.8694     6.76   11.204
   vertex -10.8694   15.025   11.204
  endloop
 endfacet
 facet normal -0.998872        0 0.0474749
  outer loop
   vertex -10.8694   15.025   11.204
   vertex -11.1218   15.025  5.89401
   vertex -11.1218     6.76  5.89401
  endloop
 endfacet
 facet normal        1       -0        0
  outer loop
   vertex -13.1557  14.4077  6.81789
   vertex -13.1557  14.5806  6.72548
   vertex -13.1557   15.025  7.29401
  endloop
 endfacet
 facet normal        1       -0        0
  outer loop
   vertex -13.1557  14.2201  6.87479
   vertex -13.1557  14.4077  6.81789
   vertex -13.1557   15.025  7.29401
  endloop
 endfacet
 facet normal        1        0        0
  outer loop
   vertex -13.1557   12.525  6.89401
   vertex -13.1557   14.025  6.89401
   vertex -13.1557   12.525  7.29401
  endloop
 endfacet
 facet normal        1        0        0
  outer loop
   vertex -13.1557   15.025  7.29401
   vertex -13.1557   12.525  7.29401
   vertex -13.1557   14.025  6.89401
  endloop
 endfacet
 facet normal        1       -0        0
  outer loop
   vertex -13.1557   14.025  6.89401
   vertex -13.1557  14.2201  6.87479
   vertex -13.1557   15.025  7.29401
  endloop
 endfacet
 facet normal        1       -0        0
  outer loop
   vertex -13.1557  15.0058   6.0891
   vertex -13.1557   15.025  5.89401
   vertex -13.1557   15.025  7.29401
  endloop
 endfacet
 facet normal        1       -0        0
  outer loop
   vertex -13.1557  14.9489  6.27669
   vertex -13.1557  15.0058   6.0891
   vertex -13.1557   15.025  7.29401
  endloop
 endfacet
 facet normal        1       -0        0
  outer loop
   vertex -13.1557  14.7321  6.60111
   vertex -13.1557  14.8565  6.44958
   vertex -13.1557   15.025  7.29401
  endloop
 endfacet
 facet normal        1        0        0
  outer loop
   vertex -13.1557   15.025  7.29401
   vertex -13.1557  14.8565  6.44958
   vertex -13.1557  14.9489  6.27669
  endloop
 endfacet
 facet normal        1        0       -0
  outer loop
   vertex -13.1557  14.7321  6.60111
   vertex -13.1557   15.025  7.29401
   vertex -13.1557  14.5806  6.72548
  endloop
 endfacet
 facet normal        0 -0.0980167 -0.995185
  outer loop
   vertex -20.5057  14.2201  6.87479
   vertex -13.1557  14.2201  6.87479
   vertex -13.1557   14.025  6.89401
  endloop
 endfacet
 facet normal        0 -0.471397 -0.881921
  outer loop
   vertex -20.5057  14.5806  6.72548
   vertex -13.1557  14.5806  6.72548
   vertex -13.1557  14.4077  6.81789
  endloop
 endfacet
 facet normal        0 -0.290282 -0.956941
  outer loop
   vertex -20.5057  14.4077  6.81789
   vertex -13.1557  14.4077  6.81789
   vertex -13.1557  14.2201  6.87479
  endloop
 endfacet
 facet normal       -0 -0.0980167 -0.995185
  outer loop
   vertex -13.1557   14.025  6.89401
   vertex -20.5057   14.025  6.89401
   vertex -20.5057  14.2201  6.87479
  endloop
 endfacet
 facet normal       -0 -0.471397 -0.881921
  outer loop
   vertex -13.1557  14.4077  6.81789
   vertex -20.5057  14.4077  6.81789
   vertex -20.5057  14.5806  6.72548
  endloop
 endfacet
 facet normal       -0 -0.634395 -0.773009
  outer loop
   vertex -13.1557  14.5806  6.72548
   vertex -20.5057  14.5806  6.72548
   vertex -20.5057  14.7321  6.60111
  endloop
 endfacet
 facet normal        0 -0.290282 -0.956941
  outer loop
   vertex -20.5057  14.4077  6.81789
   vertex -13.1557  14.2201  6.87479
   vertex -20.5057  14.2201  6.87479
  endloop
 endfacet
 facet normal        0 -0.634395 -0.773009
  outer loop
   vertex -20.5057  14.7321  6.60111
   vertex -13.1557  14.7321  6.60111
   vertex -13.1557  14.5806  6.72548
  endloop
 endfacet
 facet normal        0 -0.773009 -0.634396
  outer loop
   vertex -20.5057  14.8565  6.44958
   vertex -13.1557  14.8565  6.44958
   vertex -13.1557  14.7321  6.60111
  endloop
 endfacet
 facet normal        0 -0.881922 -0.471395
  outer loop
   vertex -20.5057  14.9489  6.27669
   vertex -13.1557  14.9489  6.27669
   vertex -13.1557  14.8565  6.44958
  endloop
 endfacet
 facet normal        0 -0.881922 -0.471395
  outer loop
   vertex -20.5057  14.9489  6.27669
   vertex -13.1557  14.8565  6.44958
   vertex -20.5057  14.8565  6.44958
  endloop
 endfacet
 facet normal        0 -0.995184 -0.0980213
  outer loop
   vertex -20.5057   15.025  5.89401
   vertex -13.1557  15.0058   6.0891
   vertex -20.5057  15.0058   6.0891
  endloop
 endfacet
 facet normal       -0 -0.95694 -0.290285
  outer loop
   vertex -13.1557  14.9489  6.27669
   vertex -20.5057  14.9489  6.27669
   vertex -20.5057  15.0058   6.0891
  endloop
 endfacet
 facet normal       -0 -0.995184 -0.0980213
  outer loop
   vertex -13.1557   15.025  5.89401
   vertex -13.1557  15.0058   6.0891
   vertex -20.5057   15.025  5.89401
  endloop
 endfacet
 facet normal        0 -0.95694 -0.290285
  outer loop
   vertex -13.1557  14.9489  6.27669
   vertex -20.5057  15.0058   6.0891
   vertex -13.1557  15.0058   6.0891
  endloop
 endfacet
 facet normal        0 -0.773009 -0.634396
  outer loop
   vertex -20.5057  14.7321  6.60111
   vertex -20.5057  14.8565  6.44958
   vertex -13.1557  14.7321  6.60111
  endloop
 endfacet
 facet normal       -1        0        0
  outer loop
   vertex -20.5057   15.025  7.29401
   vertex -20.5057  14.5806  6.72548
   vertex -20.5057  14.4077  6.81789
  endloop
 endfacet
 facet normal       -1        0        0
  outer loop
   vertex -20.5057   15.025  7.29401
   vertex -20.5057  14.4077  6.81789
   vertex -20.5057  14.2201  6.87479
  endloop
 endfacet
 facet normal       -1        0        0
  outer loop
   vertex -20.5057   12.525  7.29401
   vertex -20.5057   14.025  6.89401
   vertex -20.5057   12.525  6.89401
  endloop
 endfacet
 facet normal       -1        0        0
  outer loop
   vertex -20.5057   14.025  6.89401
   vertex -20.5057   12.525  7.29401
   vertex -20.5057   15.025  7.29401
  endloop
 endfacet
 facet normal       -1        0        0
  outer loop
   vertex -20.5057   15.025  7.29401
   vertex -20.5057  14.2201  6.87479
   vertex -20.5057   14.025  6.89401
  endloop
 endfacet
 facet normal       -1 8.54285e-05 -1.36239e-06
  outer loop
   vertex -20.5057   15.025  7.29401
   vertex -20.5057   15.025  5.89401
   vertex -20.5057  15.0058   6.0891
  endloop
 endfacet
 facet normal       -1        0        0
  outer loop
   vertex -20.5057   15.025  7.29401
   vertex -20.5057  15.0058   6.0891
   vertex -20.5057  14.9489  6.27669
  endloop
 endfacet
 facet normal       -1        0        0
  outer loop
   vertex -20.5057   15.025  7.29401
   vertex -20.5057  14.8565  6.44958
   vertex -20.5057  14.7321  6.60111
  endloop
 endfacet
 facet normal       -1        0        0
  outer loop
   vertex -20.5057  14.9489  6.27669
   vertex -20.5057  14.8565  6.44958
   vertex -20.5057   15.025  7.29401
  endloop
 endfacet
 facet normal       -1        0        0
  outer loop
   vertex -20.5057  14.5806  6.72548
   vertex -20.5057   15.025  7.29401
   vertex -20.5057  14.7321  6.60111
  endloop
 endfacet
 facet normal        0        0       -1
  outer loop
   vertex -13.1557   12.525  6.89401
   vertex -20.5057   12.525  6.89401
   vertex -13.1557   14.025  6.89401
  endloop
 endfacet
 facet normal        0        0       -1
  outer loop
   vertex -20.5057   14.025  6.89401
   vertex -13.1557   14.025  6.89401
   vertex -20.5057   12.525  6.89401
  endloop
 endfacet
 facet normal       -0        0        1
  outer loop
   vertex -20.5057   15.025  7.29401
   vertex -13.1557   12.525  7.29401
   vertex -13.1557   15.025  7.29401
  endloop
 endfacet
 facet normal        0        0        1
  outer loop
   vertex -13.1557   12.525  7.29401
   vertex -20.5057   15.025  7.29401
   vertex -20.5057   12.525  7.29401
  endloop
 endfacet
 facet normal        0        0       -1
  outer loop
   vertex -21.2007   15.025  5.89401
   vertex -22.3831   15.625  5.89401
   vertex -21.2007   15.625  5.89401
  endloop
 endfacet
 facet normal        0        0       -1
  outer loop
   vertex -22.3831   15.625  5.89401
   vertex -21.2007   15.025  5.89401
   vertex -22.3831   15.025  5.89401
  endloop
 endfacet
 facet normal        0       -1        0
  outer loop
   vertex -20.5057   12.525  7.29401
   vertex -20.5057   12.525  6.89401
   vertex -13.1557   12.525  7.29401
  endloop
 endfacet
 facet normal        0       -1        0
  outer loop
   vertex -13.1557   12.525  6.89401
   vertex -13.1557   12.525  7.29401
   vertex -20.5057   12.525  6.89401
  endloop
 endfacet
 facet normal        0 0.759257 -0.650791
  outer loop
   vertex -8.97748     3.78  8.93044
   vertex  -8.9853  3.63882  8.76573
   vertex -9.97748     3.78  8.93044
  endloop
 endfacet
 facet normal        0 0.932568 -0.360995
  outer loop
   vertex -8.99064  3.59538  8.65352
   vertex -9.98531  3.63882  8.76573
   vertex  -8.9853  3.63882  8.76573
  endloop
 endfacet
 facet normal        0 0.992278 -0.124035
  outer loop
   vertex -8.99064  3.59538  8.65352
   vertex -8.99649     3.58  8.53044
   vertex -9.99064  3.59538  8.65352
  endloop
 endfacet
 facet normal        0 0.447213 -0.894428
  outer loop
   vertex -9.97367     3.94  9.01044
   vertex -8.97367     3.94  9.01044
   vertex -8.97748     3.78  8.93044
  endloop
 endfacet
 facet normal        0 -0.141425 -0.989949
  outer loop
   vertex -8.97367     4.22  9.01044
   vertex -8.97272     4.08  9.03044
   vertex -9.97272     4.08  9.03044
  endloop
 endfacet
 facet normal       -0 -0.759256 -0.650792
  outer loop
   vertex -8.97748     4.38  8.93044
   vertex -9.97748     4.38  8.93044
   vertex  -8.9853  4.52118  8.76573
  endloop
 endfacet
 facet normal        0 -0.447214 -0.894427
  outer loop
   vertex -9.97367     4.22  9.01044
   vertex -8.97748     4.38  8.93044
   vertex -8.97367     4.22  9.01044
  endloop
 endfacet
 facet normal        0 0.141425 -0.989949
  outer loop
   vertex -9.97272     4.08  9.03044
   vertex -8.97272     4.08  9.03044
   vertex -8.97367     3.94  9.01044
  endloop
 endfacet
 facet normal       -0 -0.932569 -0.360991
  outer loop
   vertex  -8.9853  4.52118  8.76573
   vertex -9.98531  4.52118  8.76573
   vertex -8.99064  4.56462  8.65352
  endloop
 endfacet
 facet normal        0 0.447213 -0.894428
  outer loop
   vertex -8.97748     3.78  8.93044
   vertex -9.97748     3.78  8.93044
   vertex -9.97367     3.94  9.01044
  endloop
 endfacet
 facet normal        0 0.992278 -0.124035
  outer loop
   vertex -8.99649     3.58  8.53044
   vertex -9.99649     3.58  8.53044
   vertex -9.99064  3.59538  8.65352
  endloop
 endfacet
 facet normal        0 0.932568 -0.360995
  outer loop
   vertex -8.99064  3.59538  8.65352
   vertex -9.99064  3.59538  8.65352
   vertex -9.98531  3.63882  8.76573
  endloop
 endfacet
 facet normal        0 0.759257 -0.650791
  outer loop
   vertex  -8.9853  3.63882  8.76573
   vertex -9.98531  3.63882  8.76573
   vertex -9.97748     3.78  8.93044
  endloop
 endfacet
 facet normal       -0 -0.141425 -0.989949
  outer loop
   vertex -8.97367     4.22  9.01044
   vertex -9.97272     4.08  9.03044
   vertex -9.97367     4.22  9.01044
  endloop
 endfacet
 facet normal       -0 -0.759256 -0.650792
  outer loop
   vertex  -8.9853  4.52118  8.76573
   vertex -9.97748     4.38  8.93044
   vertex -9.98531  4.52118  8.76573
  endloop
 endfacet
 facet normal       -0 -0.932569 -0.360991
  outer loop
   vertex -8.99064  4.56462  8.65352
   vertex -9.98531  4.52118  8.76573
   vertex -9.99064  4.56462  8.65352
  endloop
 endfacet
 facet normal        0 -0.447214 -0.894427
  outer loop
   vertex -9.97748     4.38  8.93044
   vertex -8.97748     4.38  8.93044
   vertex -9.97367     4.22  9.01044
  endloop
 endfacet
 facet normal        0 0.141425 -0.989949
  outer loop
   vertex -9.97272     4.08  9.03044
   vertex -8.97367     3.94  9.01044
   vertex -9.97367     3.94  9.01044
  endloop
 endfacet
 facet normal        0 -0.992278 -0.124035
  outer loop
   vertex -9.99064  4.56462  8.65352
   vertex -8.99649     4.58  8.53044
   vertex -8.99064  4.56462  8.65352
  endloop
 endfacet
 facet normal        0 0.992278 0.124036
  outer loop
   vertex -9.00234  3.59538  8.40736
   vertex -9.99649     3.58  8.53044
   vertex -8.99649     3.58  8.53044
  endloop
 endfacet
 facet normal        0 -0.992278 0.124036
  outer loop
   vertex -9.99649     4.58  8.53044
   vertex -9.00234  4.56462  8.40736
   vertex -8.99649     4.58  8.53044
  endloop
 endfacet
 facet normal        0 -0.447214 0.894427
  outer loop
   vertex -10.0155     4.38  8.13044
   vertex  -9.0193     4.22  8.05044
   vertex  -9.0155     4.38  8.13044
  endloop
 endfacet
 facet normal        0 -0.759256 0.650792
  outer loop
   vertex -10.0077  4.52118  8.29515
   vertex  -9.0155     4.38  8.13044
   vertex -9.00767  4.52118  8.29515
  endloop
 endfacet
 facet normal        0 -0.932569 0.360991
  outer loop
   vertex -10.0023  4.56462  8.40736
   vertex -9.00767  4.52118  8.29515
   vertex -9.00234  4.56462  8.40736
  endloop
 endfacet
 facet normal       -0 0.932568 0.360995
  outer loop
   vertex -10.0023  3.59538  8.40736
   vertex -9.00234  3.59538  8.40736
   vertex -9.00767  3.63882  8.29515
  endloop
 endfacet
 facet normal       -0 0.447213 0.894428
  outer loop
   vertex -10.0155     3.78  8.13044
   vertex  -9.0155     3.78  8.13044
   vertex  -9.0193     3.94  8.05044
  endloop
 endfacet
 facet normal       -0 0.141425 0.989949
  outer loop
   vertex -10.0193     3.94  8.05044
   vertex  -9.0193     3.94  8.05044
   vertex -9.02025     4.08  8.03044
  endloop
 endfacet
 facet normal        0 0.759257 0.650791
  outer loop
   vertex  -9.0155     3.78  8.13044
   vertex -10.0077  3.63882  8.29515
   vertex -9.00767  3.63882  8.29515
  endloop
 endfacet
 facet normal        0 -0.141425 0.989949
  outer loop
   vertex -10.0193     4.22  8.05044
   vertex -9.02025     4.08  8.03044
   vertex  -9.0193     4.22  8.05044
  endloop
 endfacet
 facet normal        0 -0.932569 0.360991
  outer loop
   vertex -9.00767  4.52118  8.29515
   vertex -10.0023  4.56462  8.40736
   vertex -10.0077  4.52118  8.29515
  endloop
 endfacet
 facet normal        0 -0.447214 0.894427
  outer loop
   vertex -10.0155     4.38  8.13044
   vertex -10.0193     4.22  8.05044
   vertex  -9.0193     4.22  8.05044
  endloop
 endfacet
 facet normal        0 -0.759256 0.650792
  outer loop
   vertex -10.0077  4.52118  8.29515
   vertex -10.0155     4.38  8.13044
   vertex  -9.0155     4.38  8.13044
  endloop
 endfacet
 facet normal        0 -0.992278 0.124036
  outer loop
   vertex -10.0023  4.56462  8.40736
   vertex -9.00234  4.56462  8.40736
   vertex -9.99649     4.58  8.53044
  endloop
 endfacet
 facet normal       -0 0.447213 0.894428
  outer loop
   vertex -10.0193     3.94  8.05044
   vertex -10.0155     3.78  8.13044
   vertex  -9.0193     3.94  8.05044
  endloop
 endfacet
 facet normal        0 -0.141425 0.989949
  outer loop
   vertex -10.0193     4.22  8.05044
   vertex -10.0203     4.08  8.03044
   vertex -9.02025     4.08  8.03044
  endloop
 endfacet
 facet normal        0 0.141425 0.989949
  outer loop
   vertex -10.0193     3.94  8.05044
   vertex -9.02025     4.08  8.03044
   vertex -10.0203     4.08  8.03044
  endloop
 endfacet
 facet normal        0 0.759257 0.650791
  outer loop
   vertex  -9.0155     3.78  8.13044
   vertex -10.0155     3.78  8.13044
   vertex -10.0077  3.63882  8.29515
  endloop
 endfacet
 facet normal        0 0.932568 0.360995
  outer loop
   vertex -10.0023  3.59538  8.40736
   vertex -9.00767  3.63882  8.29515
   vertex -10.0077  3.63882  8.29515
  endloop
 endfacet
 facet normal       -0 0.992278 0.124036
  outer loop
   vertex -10.0023  3.59538  8.40736
   vertex -9.99649     3.58  8.53044
   vertex -9.00234  3.59538  8.40736
  endloop
 endfacet
 facet normal        0 -0.992278 -0.124035
  outer loop
   vertex -9.99064  4.56462  8.65352
   vertex -9.99649     4.58  8.53044
   vertex -8.99649     4.58  8.53044
  endloop
 endfacet
 facet normal -0.998872 -4.79092e-06 -0.0474805
  outer loop
   vertex -24.6254    4.085  9.79901
   vertex -24.6236  3.89366  9.76095
   vertex -24.7183     1.45   11.754
  endloop
 endfacet
 facet normal -0.998873 5.40743e-06 -0.047468
  outer loop
   vertex -24.6185  3.73144  9.65256
   vertex -24.7183     1.45   11.754
   vertex -24.6236  3.89366  9.76095
  endloop
 endfacet
 facet normal -0.998872 -6.7303e-06 -0.0474811
  outer loop
   vertex -24.7183     1.45   11.754
   vertex -24.6185  3.73144  9.65256
   vertex -24.6107  3.62306  9.49035
  endloop
 endfacet
 facet normal -0.998873 8.10045e-06 -0.0474669
  outer loop
   vertex -24.7183     1.45   11.754
   vertex -24.6107  3.62306  9.49035
   vertex -24.6017    3.585  9.29901
  endloop
 endfacet
 facet normal -0.998872 -8.33859e-07 -0.0474747
  outer loop
   vertex -24.6017    3.585  9.29901
   vertex -24.5206     1.45  7.59401
   vertex -24.7183     1.45   11.754
  endloop
 endfacet
 facet normal -0.998872 4.59195e-06 -0.0474815
  outer loop
   vertex -24.6236  4.27634  9.76095
   vertex -24.6254    4.085  9.79901
   vertex -24.7183     7.26   11.754
  endloop
 endfacet
 facet normal -0.998872        0 -0.047474
  outer loop
   vertex -24.7183     1.45   11.754
   vertex -24.7183     7.26   11.754
   vertex -24.6254    4.085  9.79901
  endloop
 endfacet
 facet normal -0.998872 5.87021e-06 -0.0474817
  outer loop
   vertex -24.7183     7.26   11.754
   vertex -24.6107  4.54694  9.49035
   vertex -24.6185  4.43855  9.65256
  endloop
 endfacet
 facet normal -0.998873 -4.91802e-06 -0.0474673
  outer loop
   vertex -24.7183     7.26   11.754
   vertex -24.6185  4.43855  9.65256
   vertex -24.6236  4.27634  9.76095
  endloop
 endfacet
 facet normal -0.998873 -6.71763e-06 -0.0474667
  outer loop
   vertex -24.6017    4.585  9.29901
   vertex -24.6107  4.54694  9.49035
   vertex -24.7183     7.26   11.754
  endloop
 endfacet
 facet normal -0.998872 -9.09738e-07 -0.0474745
  outer loop
   vertex -24.5206     1.45  7.59401
   vertex -24.5926  3.62306  9.10766
   vertex -24.5849  3.73144  8.94545
  endloop
 endfacet
 facet normal -0.998873 -3.05745e-06 -0.0474699
  outer loop
   vertex -24.5779    4.085  8.79901
   vertex -24.5206     1.45  7.59401
   vertex -24.5797  3.89366  8.83707
  endloop
 endfacet
 facet normal -0.998872 5.74559e-07 -0.047477
  outer loop
   vertex -24.5849  3.73144  8.94545
   vertex -24.5797  3.89366  8.83707
   vertex -24.5206     1.45  7.59401
  endloop
 endfacet
 facet normal -0.998872       -0 -0.0474766
  outer loop
   vertex -24.5206     7.26  7.59401
   vertex -24.5206     1.45  7.59401
   vertex -24.5779    4.085  8.79901
  endloop
 endfacet
 facet normal -0.998872 -4.85656e-07 -0.0474751
  outer loop
   vertex -24.5206     1.45  7.59401
   vertex -24.6017    3.585  9.29901
   vertex -24.5926  3.62306  9.10766
  endloop
 endfacet
 facet normal -0.998872 3.98647e-07 -0.0474751
  outer loop
   vertex -24.5206     7.26  7.59401
   vertex -24.5926  4.54694  9.10766
   vertex -24.6017    4.585  9.29901
  endloop
 endfacet
 facet normal -0.998872 -5.10509e-07 -0.0474771
  outer loop
   vertex -24.5206     7.26  7.59401
   vertex -24.5797  4.27634  8.83707
   vertex -24.5849  4.43855  8.94545
  endloop
 endfacet
 facet normal -0.998873 2.87863e-06 -0.047469
  outer loop
   vertex -24.5779    4.085  8.79901
   vertex -24.5797  4.27634  8.83707
   vertex -24.5206     7.26  7.59401
  endloop
 endfacet
 facet normal -0.998872 7.77836e-07 -0.0474744
  outer loop
   vertex -24.5926  4.54694  9.10766
   vertex -24.5206     7.26  7.59401
   vertex -24.5849  4.43855  8.94545
  endloop
 endfacet
 facet normal -0.998872 6.65527e-07 -0.0474747
  outer loop
   vertex -24.7183     7.26   11.754
   vertex -24.5206     7.26  7.59401
   vertex -24.6017    4.585  9.29901
  endloop
 endfacet
 facet normal        0        1        0
  outer loop
   vertex -23.2683     7.26   11.754
   vertex -24.5206     7.26  7.59401
   vertex -24.7183     7.26   11.754
  endloop
 endfacet
 facet normal        0        1        0
  outer loop
   vertex -24.5206     7.26  7.59401
   vertex -23.2683     7.26   11.754
   vertex -23.0706     7.26  7.59401
  endloop
 endfacet
 facet normal        0       -1        0
  outer loop
   vertex -23.6922     6.76   11.204
   vertex -23.5206     6.76  7.59401
   vertex -22.6922     6.76   11.204
  endloop
 endfacet
 facet normal        0       -1        0
  outer loop
   vertex -22.5206     6.76  7.59401
   vertex -22.6922     6.76   11.204
   vertex -23.5206     6.76  7.59401
  endloop
 endfacet
 facet normal 0.998873 -3.02204e-06 0.0474697
  outer loop
   vertex -23.6922     1.45   11.204
   vertex -23.6236  3.89366  9.76095
   vertex -23.6254    4.085  9.79901
  endloop
 endfacet
 facet normal 0.998873 -4.68187e-06 0.0474669
  outer loop
   vertex -23.6236  3.89366  9.76095
   vertex -23.6922     1.45   11.204
   vertex -23.6185  3.73144  9.65256
  endloop
 endfacet
 facet normal 0.998872 6.09357e-08 0.0474739
  outer loop
   vertex -23.6108  3.62306  9.49035
   vertex -23.6185  3.73144  9.65256
   vertex -23.6922     1.45   11.204
  endloop
 endfacet
 facet normal 0.998872 7.79265e-06 0.0474837
  outer loop
   vertex -23.6017    3.585  9.29901
   vertex -23.6108  3.62306  9.49035
   vertex -23.6922     1.45   11.204
  endloop
 endfacet
 facet normal 0.998872 -1.36045e-07 0.0474748
  outer loop
   vertex -23.6922     1.45   11.204
   vertex -23.5206     1.45  7.59401
   vertex -23.6017    3.585  9.29901
  endloop
 endfacet
 facet normal 0.998873 3.00962e-06 0.0474697
  outer loop
   vertex -23.6922     6.76   11.204
   vertex -23.6254    4.085  9.79901
   vertex -23.6236  4.27634  9.76095
  endloop
 endfacet
 facet normal 0.998872        0 0.0474754
  outer loop
   vertex -23.6254    4.085  9.79901
   vertex -23.6922     6.76   11.204
   vertex -23.6922     1.45   11.204
  endloop
 endfacet
 facet normal 0.998872 -6.02098e-08 0.0474739
  outer loop
   vertex -23.6185  4.43855  9.65256
   vertex -23.6108  4.54694  9.49035
   vertex -23.6922     6.76   11.204
  endloop
 endfacet
 facet normal 0.998873 4.64154e-06 0.0474669
  outer loop
   vertex -23.6236  4.27634  9.76095
   vertex -23.6185  4.43855  9.65256
   vertex -23.6922     6.76   11.204
  endloop
 endfacet
 facet normal 0.998872 -7.67056e-06 0.0474837
  outer loop
   vertex -23.6922     6.76   11.204
   vertex -23.6108  4.54694  9.49035
   vertex -23.6017    4.585  9.29901
  endloop
 endfacet
 facet normal 0.998872 9.09738e-07 0.0474745
  outer loop
   vertex -23.5849  3.73144  8.94545
   vertex -23.5926  3.62306  9.10766
   vertex -23.5206     1.45  7.59401
  endloop
 endfacet
 facet normal 0.998872 -4.1006e-06 0.0474839
  outer loop
   vertex -23.5797  3.89366  8.83707
   vertex -23.5206     1.45  7.59401
   vertex -23.5779    4.085  8.79901
  endloop
 endfacet
 facet normal 0.998872 -5.74559e-07 0.047477
  outer loop
   vertex -23.5206     1.45  7.59401
   vertex -23.5797  3.89366  8.83707
   vertex -23.5849  3.73144  8.94545
  endloop
 endfacet
 facet normal 0.998872        0 0.047475
  outer loop
   vertex -23.5779    4.085  8.79901
   vertex -23.5206     1.45  7.59401
   vertex -23.5206     6.76  7.59401
  endloop
 endfacet
 facet normal 0.998873 6.57727e-06 0.0474664
  outer loop
   vertex -23.5926  3.62306  9.10766
   vertex -23.6017    3.585  9.29901
   vertex -23.5206     1.45  7.59401
  endloop
 endfacet
 facet normal 0.998873 -6.4726e-06 0.0474664
  outer loop
   vertex -23.6017    4.585  9.29901
   vertex -23.5926  4.54694  9.10766
   vertex -23.5206     6.76  7.59401
  endloop
 endfacet
 facet normal 0.998872 5.69268e-07 0.047477
  outer loop
   vertex -23.5849  4.43855  8.94545
   vertex -23.5797  4.27634  8.83707
   vertex -23.5206     6.76  7.59401
  endloop
 endfacet
 facet normal 0.998872 4.0818e-06 0.047484
  outer loop
   vertex -23.5206     6.76  7.59401
   vertex -23.5797  4.27634  8.83707
   vertex -23.5779    4.085  8.79901
  endloop
 endfacet
 facet normal 0.998872 -8.9845e-07 0.0474745
  outer loop
   vertex -23.5849  4.43855  8.94545
   vertex -23.5206     6.76  7.59401
   vertex -23.5926  4.54694  9.10766
  endloop
 endfacet
 facet normal 0.998872 1.33542e-07 0.0474748
  outer loop
   vertex -23.6017    4.585  9.29901
   vertex -23.5206     6.76  7.59401
   vertex -23.6922     6.76   11.204
  endloop
 endfacet
 facet normal -0.998872 3.93844e-06 0.0474792
  outer loop
   vertex -9.97367     3.94  9.01044
   vertex -9.97748     3.78  8.93044
   vertex -9.86942     1.45   11.204
  endloop
 endfacet
 facet normal -0.998872 1.37186e-06 0.0474766
  outer loop
   vertex -9.98531  3.63882  8.76573
   vertex -9.86942     1.45   11.204
   vertex -9.97748     3.78  8.93044
  endloop
 endfacet
 facet normal -0.998873 -4.47617e-06 0.0474697
  outer loop
   vertex -9.97272     4.08  9.03044
   vertex -9.97367     3.94  9.01044
   vertex -9.86942     1.45   11.204
  endloop
 endfacet
 facet normal -0.998873 -1.08189e-05 0.0474657
  outer loop
   vertex -9.86942     1.45   11.204
   vertex -9.98531  3.63882  8.76573
   vertex -9.99064  3.59538  8.65352
  endloop
 endfacet
 facet normal -0.998872 1.45642e-06 0.047476
  outer loop
   vertex -9.86942     1.45   11.204
   vertex -9.99064  3.59538  8.65352
   vertex -9.99649     3.58  8.53044
  endloop
 endfacet
 facet normal -0.998872 1.59603e-07 0.0474749
  outer loop
   vertex -9.99649     3.58  8.53044
   vertex -10.1218     1.45  5.89401
   vertex -9.86942     1.45   11.204
  endloop
 endfacet
 facet normal -0.998873 4.46366e-06 0.0474696
  outer loop
   vertex -9.97367     4.22  9.01044
   vertex -9.97272     4.08  9.03044
   vertex -9.86942     6.76   11.204
  endloop
 endfacet
 facet normal -0.998872        0 0.0474751
  outer loop
   vertex -9.86942     1.45   11.204
   vertex -9.86942     6.76   11.204
   vertex -9.97272     4.08  9.03044
  endloop
 endfacet
 facet normal -0.998872 -3.91002e-06 0.0474793
  outer loop
   vertex -9.97748     4.38  8.93044
   vertex -9.97367     4.22  9.01044
   vertex -9.86942     6.76   11.204
  endloop
 endfacet
 facet normal -0.998873 1.0649e-05 0.0474656
  outer loop
   vertex -9.86942     6.76   11.204
   vertex -9.99064  4.56462  8.65352
   vertex -9.98531  4.52118  8.76573
  endloop
 endfacet
 facet normal -0.998872 -1.35601e-06 0.0474766
  outer loop
   vertex -9.86942     6.76   11.204
   vertex -9.98531  4.52118  8.76573
   vertex -9.97748     4.38  8.93044
  endloop
 endfacet
 facet normal -0.998872 -1.42746e-06 0.047476
  outer loop
   vertex -9.99649     4.58  8.53044
   vertex -9.99064  4.56462  8.65352
   vertex -9.86942     6.76   11.204
  endloop
 endfacet
 facet normal -0.998872 -2.77239e-06 0.0474774
  outer loop
   vertex -10.1218     1.45  5.89401
   vertex -10.0023  3.59538  8.40736
   vertex -10.0077  3.63882  8.29515
  endloop
 endfacet
 facet normal -0.998872 -1.65659e-06 0.0474764
  outer loop
   vertex -10.1218     1.45  5.89401
   vertex -10.0077  3.63882  8.29515
   vertex -10.0155     3.78  8.13044
  endloop
 endfacet
 facet normal -0.998872 -1.33967e-06 0.0474766
  outer loop
   vertex -10.0203     4.08  8.03044
   vertex -10.1218     1.45  5.89401
   vertex -10.0193     3.94  8.05044
  endloop
 endfacet
 facet normal -0.998873 3.72729e-06 0.0474708
  outer loop
   vertex -10.0155     3.78  8.13044
   vertex -10.0193     3.94  8.05044
   vertex -10.1218     1.45  5.89401
  endloop
 endfacet
 facet normal -0.998872        0 0.0474749
  outer loop
   vertex -10.1218     6.76  5.89401
   vertex -10.1218     1.45  5.89401
   vertex -10.0203     4.08  8.03044
  endloop
 endfacet
 facet normal -0.998872 -1.55872e-06 0.0474763
  outer loop
   vertex -10.1218     1.45  5.89401
   vertex -9.99649     3.58  8.53044
   vertex -10.0023  3.59538  8.40736
  endloop
 endfacet
 facet normal -0.998872 2.72864e-06 0.0474774
  outer loop
   vertex -10.1218     6.76  5.89401
   vertex -10.0077  4.52118  8.29515
   vertex -10.0023  4.56462  8.40736
  endloop
 endfacet
 facet normal -0.998872 1.52766e-06 0.0474763
  outer loop
   vertex -10.1218     6.76  5.89401
   vertex -10.0023  4.56462  8.40736
   vertex -9.99649     4.58  8.53044
  endloop
 endfacet
 facet normal -0.998873 -3.70011e-06 0.0474707
  outer loop
   vertex -10.1218     6.76  5.89401
   vertex -10.0193     4.22  8.05044
   vertex -10.0155     4.38  8.13044
  endloop
 endfacet
 facet normal -0.998872 1.33587e-06 0.0474766
  outer loop
   vertex -10.0203     4.08  8.03044
   vertex -10.0193     4.22  8.05044
   vertex -10.1218     6.76  5.89401
  endloop
 endfacet
 facet normal -0.998872 1.63731e-06 0.0474764
  outer loop
   vertex -10.0077  4.52118  8.29515
   vertex -10.1218     6.76  5.89401
   vertex -10.0155     4.38  8.13044
  endloop
 endfacet
 facet normal -0.998872 -1.55942e-07 0.0474749
  outer loop
   vertex -9.86942     6.76   11.204
   vertex -10.1218     6.76  5.89401
   vertex -9.99649     4.58  8.53044
  endloop
 endfacet
 facet normal        0       -1       -0
  outer loop
   vertex -9.86942     1.45   11.204
   vertex -10.1218     1.45  5.89401
   vertex -9.12179     1.45  5.89401
  endloop
 endfacet
 facet normal        0       -1        0
  outer loop
   vertex -23.6922     1.45   11.204
   vertex -9.86942     1.45   11.204
   vertex -8.84328     1.45   11.754
  endloop
 endfacet
 facet normal        0       -1        0
  outer loop
   vertex -9.12179     1.45  5.89401
   vertex -8.84328     1.45   11.754
   vertex -9.86942     1.45   11.204
  endloop
 endfacet
 facet normal        0       -1       -0
  outer loop
   vertex -23.6922     1.45   11.204
   vertex -24.5206     1.45  7.59401
   vertex -23.5206     1.45  7.59401
  endloop
 endfacet
 facet normal       -0       -1        0
  outer loop
   vertex -8.84328     1.45   11.754
   vertex -24.7183     1.45   11.754
   vertex -23.6922     1.45   11.204
  endloop
 endfacet
 facet normal        0       -1        0
  outer loop
   vertex -24.5206     1.45  7.59401
   vertex -23.6922     1.45   11.204
   vertex -24.7183     1.45   11.754
  endloop
 endfacet
 facet normal 0.998873 4.01484e-06 -0.0474713
  outer loop
   vertex -8.84328     1.45   11.754
   vertex -8.97748     3.78  8.93044
   vertex -8.97367     3.94  9.01044
  endloop
 endfacet
 facet normal 0.998872 -1.86701e-06 -0.0474762
  outer loop
   vertex -8.97748     3.78  8.93044
   vertex -8.84328     1.45   11.754
   vertex  -8.9853  3.63882  8.76573
  endloop
 endfacet
 facet normal 0.998872 -1.39229e-06 -0.0474762
  outer loop
   vertex -8.84328     1.45   11.754
   vertex -8.97367     3.94  9.01044
   vertex -8.97272     4.08  9.03044
  endloop
 endfacet
 facet normal 0.998872 -3.24966e-06 -0.0474772
  outer loop
   vertex -8.99064  3.59538  8.65352
   vertex  -8.9853  3.63882  8.76573
   vertex -8.84328     1.45   11.754
  endloop
 endfacet
 facet normal 0.998872 -1.49867e-06 -0.047476
  outer loop
   vertex -8.99649     3.58  8.53044
   vertex -8.99064  3.59538  8.65352
   vertex -8.84328     1.45   11.754
  endloop
 endfacet
 facet normal 0.998872 -6.21795e-08 -0.047475
  outer loop
   vertex -8.84328     1.45   11.754
   vertex -9.12179     1.45  5.89401
   vertex -8.99649     3.58  8.53044
  endloop
 endfacet
 facet normal 0.998872 1.35786e-06 -0.0474765
  outer loop
   vertex -8.84328     7.26   11.754
   vertex -8.97272     4.08  9.03044
   vertex -8.97367     4.22  9.01044
  endloop
 endfacet
 facet normal 0.998872        0 -0.0474749
  outer loop
   vertex -8.97272     4.08  9.03044
   vertex -8.84328     7.26   11.754
   vertex -8.84328     1.45   11.754
  endloop
 endfacet
 facet normal 0.998873 -3.75589e-06 -0.0474708
  outer loop
   vertex -8.84328     7.26   11.754
   vertex -8.97367     4.22  9.01044
   vertex -8.97748     4.38  8.93044
  endloop
 endfacet
 facet normal 0.998872 2.79086e-06 -0.0474774
  outer loop
   vertex  -8.9853  4.52118  8.76573
   vertex -8.99064  4.56462  8.65352
   vertex -8.84328     7.26   11.754
  endloop
 endfacet
 facet normal 0.998872 1.67327e-06 -0.0474763
  outer loop
   vertex -8.97748     4.38  8.93044
   vertex  -8.9853  4.52118  8.76573
   vertex -8.84328     7.26   11.754
  endloop
 endfacet
 facet normal 0.998872 1.2313e-06 -0.047476
  outer loop
   vertex -8.84328     7.26   11.754
   vertex -8.99064  4.56462  8.65352
   vertex -8.99649     4.58  8.53044
  endloop
 endfacet
 facet normal 0.998873 -4.06969e-06 -0.0474715
  outer loop
   vertex -9.00767  3.63882  8.29515
   vertex -9.00234  3.59538  8.40736
   vertex -9.12179     1.45  5.89401
  endloop
 endfacet
 facet normal 0.998872 1.43229e-06 -0.0474765
  outer loop
   vertex  -9.0155     3.78  8.13044
   vertex -9.00767  3.63882  8.29515
   vertex -9.12179     1.45  5.89401
  endloop
 endfacet
 facet normal 0.998873 -4.50113e-06 -0.0474699
  outer loop
   vertex  -9.0193     3.94  8.05044
   vertex -9.12179     1.45  5.89401
   vertex -9.02025     4.08  8.03044
  endloop
 endfacet
 facet normal 0.998872 4.72438e-08 -0.0474751
  outer loop
   vertex -9.12179     1.45  5.89401
   vertex  -9.0193     3.94  8.05044
   vertex  -9.0155     3.78  8.13044
  endloop
 endfacet
 facet normal 0.998872        0 -0.0474754
  outer loop
   vertex -9.02025     4.08  8.03044
   vertex -9.12179     1.45  5.89401
   vertex -9.12179     7.26  5.89401
  endloop
 endfacet
 facet normal 0.998872 1.55872e-06 -0.0474763
  outer loop
   vertex -9.00234  3.59538  8.40736
   vertex -8.99649     3.58  8.53044
   vertex -9.12179     1.45  5.89401
  endloop
 endfacet
 facet normal 0.998873 3.45952e-06 -0.0474713
  outer loop
   vertex -9.00234  4.56462  8.40736
   vertex -9.00767  4.52118  8.29515
   vertex -9.12179     7.26  5.89401
  endloop
 endfacet
 facet normal 0.998872 -1.27386e-06 -0.0474764
  outer loop
   vertex -8.99649     4.58  8.53044
   vertex -9.00234  4.56462  8.40736
   vertex -9.12179     7.26  5.89401
  endloop
 endfacet
 facet normal 0.998872 -4.371e-08 -0.0474751
  outer loop
   vertex  -9.0155     4.38  8.13044
   vertex  -9.0193     4.22  8.05044
   vertex -9.12179     7.26  5.89401
  endloop
 endfacet
 facet normal 0.998873 4.36461e-06 -0.0474689
  outer loop
   vertex -9.12179     7.26  5.89401
   vertex  -9.0193     4.22  8.05044
   vertex -9.02025     4.08  8.03044
  endloop
 endfacet
 facet normal 0.998872 -1.26806e-06 -0.0474767
  outer loop
   vertex  -9.0155     4.38  8.13044
   vertex -9.12179     7.26  5.89401
   vertex -9.00767  4.52118  8.29515
  endloop
 endfacet
 facet normal 0.998872 4.94188e-08 -0.047475
  outer loop
   vertex -8.99649     4.58  8.53044
   vertex -9.12179     7.26  5.89401
   vertex -8.84328     7.26   11.754
  endloop
 endfacet
 facet normal        0       -1        0
  outer loop
   vertex -10.8694     6.76   11.204
   vertex -10.1218     6.76  5.89401
   vertex -9.86942     6.76   11.204
  endloop
 endfacet
 facet normal        0       -1        0
  outer loop
   vertex -10.1218     6.76  5.89401
   vertex -10.8694     6.76   11.204
   vertex -11.1218     6.76  5.89401
  endloop
 endfacet
 facet normal        0        1        0
  outer loop
   vertex -8.84328     7.26   11.754
   vertex -9.12179     7.26  5.89401
   vertex -10.2933     7.26   11.754
  endloop
 endfacet
 facet normal        0        1        0
  outer loop
   vertex -10.5719     7.26  5.89401
   vertex -10.2933     7.26   11.754
   vertex -9.12179     7.26  5.89401
  endloop
 endfacet
 facet normal        0        0       -1
  outer loop
   vertex -13.1557  14.4831  3.75493
   vertex -20.4557  14.4831  3.75493
   vertex -20.4557   15.025  3.75493
  endloop
 endfacet
 facet normal        0        0       -1
  outer loop
   vertex -20.4557   15.025  3.75493
   vertex -13.1557   15.025  3.75493
   vertex -13.1557  14.4831  3.75493
  endloop
 endfacet
 facet normal       -1        0        0
  outer loop
   vertex -20.4557   15.025  3.75493
   vertex -20.4557  14.4831  3.75493
   vertex -20.4557  14.7018   3.9076
  endloop
 endfacet
 facet normal       -1        0        0
  outer loop
   vertex -20.4557   15.025  3.75493
   vertex -20.4557  14.7018   3.9076
   vertex -20.4557  14.8725  4.11268
  endloop
 endfacet
 facet normal       -1        0       -0
  outer loop
   vertex -20.4557   15.025  4.61901
   vertex -20.4557   15.025  3.75493
   vertex -20.4557  14.9828  4.35558
  endloop
 endfacet
 facet normal       -1        0        0
  outer loop
   vertex -20.4557  14.8725  4.11268
   vertex -20.4557  14.9828  4.35558
   vertex -20.4557   15.025  3.75493
  endloop
 endfacet
 facet normal        1 6.89178e-06 -1.10369e-06
  outer loop
   vertex -13.1557   15.025  4.61901
   vertex -13.1557  14.9828  4.35558
   vertex -13.1557   15.025  3.75493
  endloop
 endfacet
 facet normal        1 3.0273e-06 -1.37511e-06
  outer loop
   vertex -13.1557  14.8725  4.11268
   vertex -13.1557   15.025  3.75493
   vertex -13.1557  14.9828  4.35558
  endloop
 endfacet
 facet normal        1 2.11847e-06 -1.76257e-06
  outer loop
   vertex -13.1557   15.025  3.75493
   vertex -13.1557  14.8725  4.11268
   vertex -13.1557  14.7018   3.9076
  endloop
 endfacet
 facet normal        1 1.75977e-06 -2.52181e-06
  outer loop
   vertex -13.1557   15.025  3.75493
   vertex -13.1557  14.7018   3.9076
   vertex -13.1557  14.4831  3.75493
  endloop
 endfacet
 facet normal -0.998872       -0 -0.0474753
  outer loop
   vertex -22.3831   15.625  5.89401
   vertex -22.3831   15.025  5.89401
   vertex -22.4639   15.025  7.59401
  endloop
 endfacet
 facet normal -0.998872        0 -0.0474753
  outer loop
   vertex -22.4639   15.025  7.59401
   vertex -22.4639   15.625  7.59401
   vertex -22.3831   15.625  5.89401
  endloop
 endfacet
 facet normal        0        0       -1
  outer loop
   vertex -23.7956     7.26  7.59401
   vertex -23.5206     6.76  7.59401
   vertex -23.5206     1.45  7.59401
  endloop
 endfacet
 facet normal        0        0       -1
  outer loop
   vertex -24.5206     7.26  7.59401
   vertex -23.7956     7.26  7.59401
   vertex -24.5206     1.45  7.59401
  endloop
 endfacet
 facet normal        0       -0       -1
  outer loop
   vertex -23.7956     7.26  7.59401
   vertex -23.5206     1.45  7.59401
   vertex -24.5206     1.45  7.59401
  endloop
 endfacet
 facet normal        0        0       -1
  outer loop
   vertex -23.4331     7.26  7.59401
   vertex -23.0706     7.26  7.59401
   vertex -23.0206     6.76  7.59401
  endloop
 endfacet
 facet normal        0       -0       -1
  outer loop
   vertex -22.5206   15.025  7.59401
   vertex -22.5206     6.76  7.59401
   vertex -23.0706     7.26  7.59401
  endloop
 endfacet
 facet normal        0        0       -1
  outer loop
   vertex -23.0206     6.76  7.59401
   vertex -23.0706     7.26  7.59401
   vertex -22.5206     6.76  7.59401
  endloop
 endfacet
 facet normal        0       -0       -1
  outer loop
   vertex -22.4639   15.625  7.59401
   vertex -22.4639   15.025  7.59401
   vertex -22.5206   15.025  7.59401
  endloop
 endfacet
 facet normal        0        0       -1
  outer loop
   vertex -23.0706   15.625  7.59401
   vertex -22.4639   15.625  7.59401
   vertex -22.5206   15.025  7.59401
  endloop
 endfacet
 facet normal        0        0       -1
  outer loop
   vertex -23.5206     6.76  7.59401
   vertex -23.4331     7.26  7.59401
   vertex -23.0206     6.76  7.59401
  endloop
 endfacet
 facet normal        0        0       -1
  outer loop
   vertex -23.0706   15.625  7.59401
   vertex -22.5206   15.025  7.59401
   vertex -23.0706     7.26  7.59401
  endloop
 endfacet
 facet normal        0        0       -1
  outer loop
   vertex -23.5206     6.76  7.59401
   vertex -23.7956     7.26  7.59401
   vertex -23.4331     7.26  7.59401
  endloop
 endfacet
 facet normal        0 0.980785 -0.19509
  outer loop
   vertex -24.6017    3.585  9.29901
   vertex -23.6108  3.62306  9.49035
   vertex -23.6017    3.585  9.29901
  endloop
 endfacet
 facet normal        0 0.555572 -0.831468
  outer loop
   vertex -24.6185  3.73144  9.65256
   vertex -23.6236  3.89366  9.76095
   vertex -23.6185  3.73144  9.65256
  endloop
 endfacet
 facet normal        0 0.831469 -0.555571
  outer loop
   vertex -24.6107  3.62306  9.49035
   vertex -23.6185  3.73144  9.65256
   vertex -23.6108  3.62306  9.49035
  endloop
 endfacet
 facet normal        0 -0.831469 -0.555571
  outer loop
   vertex -24.6107  4.54694  9.49035
   vertex -23.6108  4.54694  9.49035
   vertex -23.6185  4.43855  9.65256
  endloop
 endfacet
 facet normal        0 -0.19509 -0.980785
  outer loop
   vertex -24.6236  4.27634  9.76095
   vertex -23.6236  4.27634  9.76095
   vertex -23.6254    4.085  9.79901
  endloop
 endfacet
 facet normal        0 -0.555573 -0.831468
  outer loop
   vertex -23.6236  4.27634  9.76095
   vertex -24.6185  4.43855  9.65256
   vertex -23.6185  4.43855  9.65256
  endloop
 endfacet
 facet normal        0  0.19509 -0.980785
  outer loop
   vertex -24.6236  3.89366  9.76095
   vertex -23.6254    4.085  9.79901
   vertex -23.6236  3.89366  9.76095
  endloop
 endfacet
 facet normal        0 0.831469 -0.555571
  outer loop
   vertex -23.6185  3.73144  9.65256
   vertex -24.6107  3.62306  9.49035
   vertex -24.6185  3.73144  9.65256
  endloop
 endfacet
 facet normal        0 0.555572 -0.831468
  outer loop
   vertex -23.6236  3.89366  9.76095
   vertex -24.6185  3.73144  9.65256
   vertex -24.6236  3.89366  9.76095
  endloop
 endfacet
 facet normal        0 0.980785 -0.19509
  outer loop
   vertex -24.6107  3.62306  9.49035
   vertex -23.6108  3.62306  9.49035
   vertex -24.6017    3.585  9.29901
  endloop
 endfacet
 facet normal        0 -0.19509 -0.980785
  outer loop
   vertex -24.6254    4.085  9.79901
   vertex -24.6236  4.27634  9.76095
   vertex -23.6254    4.085  9.79901
  endloop
 endfacet
 facet normal        0  0.19509 -0.980785
  outer loop
   vertex -24.6254    4.085  9.79901
   vertex -23.6254    4.085  9.79901
   vertex -24.6236  3.89366  9.76095
  endloop
 endfacet
 facet normal       -0 -0.555573 -0.831468
  outer loop
   vertex -23.6236  4.27634  9.76095
   vertex -24.6236  4.27634  9.76095
   vertex -24.6185  4.43855  9.65256
  endloop
 endfacet
 facet normal        0 -0.831469 -0.555571
  outer loop
   vertex -24.6107  4.54694  9.49035
   vertex -23.6185  4.43855  9.65256
   vertex -24.6185  4.43855  9.65256
  endloop
 endfacet
 facet normal        0 -0.980785 -0.195093
  outer loop
   vertex -24.6107  4.54694  9.49035
   vertex -24.6017    4.585  9.29901
   vertex -23.6108  4.54694  9.49035
  endloop
 endfacet
 facet normal        0 0.980785 0.195089
  outer loop
   vertex -24.5926  3.62306  9.10766
   vertex -24.6017    3.585  9.29901
   vertex -23.6017    3.585  9.29901
  endloop
 endfacet
 facet normal        0 -0.831469 0.555571
  outer loop
   vertex -23.5849  4.43855  8.94545
   vertex -23.5926  4.54694  9.10766
   vertex -24.5849  4.43855  8.94545
  endloop
 endfacet
 facet normal        0 -0.980785 0.195092
  outer loop
   vertex -23.6017    4.585  9.29901
   vertex -24.5926  4.54694  9.10766
   vertex -23.5926  4.54694  9.10766
  endloop
 endfacet
 facet normal        0 -0.55557  0.83147
  outer loop
   vertex -23.5849  4.43855  8.94545
   vertex -24.5797  4.27634  8.83707
   vertex -23.5797  4.27634  8.83707
  endloop
 endfacet
 facet normal        0  0.19509 0.980785
  outer loop
   vertex -23.5779    4.085  8.79901
   vertex -24.5779    4.085  8.79901
   vertex -23.5797  3.89366  8.83707
  endloop
 endfacet
 facet normal        0 0.555569  0.83147
  outer loop
   vertex -23.5849  3.73144  8.94545
   vertex -23.5797  3.89366  8.83707
   vertex -24.5797  3.89366  8.83707
  endloop
 endfacet
 facet normal        0 -0.19509 0.980785
  outer loop
   vertex -23.5779    4.085  8.79901
   vertex -23.5797  4.27634  8.83707
   vertex -24.5779    4.085  8.79901
  endloop
 endfacet
 facet normal        0 0.831469 0.555571
  outer loop
   vertex -23.5849  3.73144  8.94545
   vertex -24.5849  3.73144  8.94545
   vertex -23.5926  3.62306  9.10766
  endloop
 endfacet
 facet normal        0 -0.55557  0.83147
  outer loop
   vertex -23.5849  4.43855  8.94545
   vertex -24.5849  4.43855  8.94545
   vertex -24.5797  4.27634  8.83707
  endloop
 endfacet
 facet normal        0 -0.980785 0.195092
  outer loop
   vertex -23.6017    4.585  9.29901
   vertex -24.6017    4.585  9.29901
   vertex -24.5926  4.54694  9.10766
  endloop
 endfacet
 facet normal        0 -0.831469 0.555571
  outer loop
   vertex -23.5926  4.54694  9.10766
   vertex -24.5926  4.54694  9.10766
   vertex -24.5849  4.43855  8.94545
  endloop
 endfacet
 facet normal        0  0.19509 0.980785
  outer loop
   vertex -23.5797  3.89366  8.83707
   vertex -24.5779    4.085  8.79901
   vertex -24.5797  3.89366  8.83707
  endloop
 endfacet
 facet normal        0 0.831469 0.555571
  outer loop
   vertex -23.5926  3.62306  9.10766
   vertex -24.5849  3.73144  8.94545
   vertex -24.5926  3.62306  9.10766
  endloop
 endfacet
 facet normal       -0 0.555569  0.83147
  outer loop
   vertex -24.5849  3.73144  8.94545
   vertex -23.5849  3.73144  8.94545
   vertex -24.5797  3.89366  8.83707
  endloop
 endfacet
 facet normal        0 -0.19509 0.980785
  outer loop
   vertex -24.5779    4.085  8.79901
   vertex -23.5797  4.27634  8.83707
   vertex -24.5797  4.27634  8.83707
  endloop
 endfacet
 facet normal       -0 0.980785 0.195089
  outer loop
   vertex -24.5926  3.62306  9.10766
   vertex -23.6017    3.585  9.29901
   vertex -23.5926  3.62306  9.10766
  endloop
 endfacet
 facet normal        0 -0.980785 -0.195093
  outer loop
   vertex -23.6108  4.54694  9.49035
   vertex -24.6017    4.585  9.29901
   vertex -23.6017    4.585  9.29901
  endloop
 endfacet
 facet normal        1        0        0
  outer loop
   vertex -12.4607  5.11499 0.769006
   vertex -12.4607  5.11499 0.719006
   vertex -12.4607    8.125 0.719006
  endloop
 endfacet
 facet normal        1        0       -0
  outer loop
   vertex -12.4607    8.125 0.719006
   vertex -12.4607    8.125 0.769006
   vertex -12.4607  5.11499 0.769006
  endloop
 endfacet
 facet normal        0        0        1
  outer loop
   vertex -12.4607    8.125 0.719006
   vertex -12.4607  5.11499 0.719006
   vertex -11.6807  5.11499 0.719006
  endloop
 endfacet
 facet normal        0       -0        1
  outer loop
   vertex -11.6807  5.11499 0.719006
   vertex -11.6807    8.125 0.719006
   vertex -12.4607    8.125 0.719006
  endloop
 endfacet
 facet normal       -0       -1        0
  outer loop
   vertex -11.6807    8.125  3.04401
   vertex -12.3607    8.125  3.04401
   vertex -12.3607    8.125 0.769006
  endloop
 endfacet
 facet normal        0       -1       -0
  outer loop
   vertex -11.6807    8.125  3.04401
   vertex -12.3607    8.125 0.769006
   vertex -11.6807    8.125 0.719006
  endloop
 endfacet
 facet normal        0       -1        0
  outer loop
   vertex -12.4607    8.125 0.719006
   vertex -11.6807    8.125 0.719006
   vertex -12.3607    8.125 0.769006
  endloop
 endfacet
 facet normal        0       -1        0
  outer loop
   vertex -12.4607    8.125 0.719006
   vertex -12.3607    8.125 0.769006
   vertex -12.4607    8.125 0.769006
  endloop
 endfacet
 facet normal        0       -1        0
  outer loop
   vertex -24.5507    5.114  2.99401
   vertex -24.5507    5.114 0.269006
   vertex -23.9507    5.114 0.769006
  endloop
 endfacet
 facet normal        0       -1       -0
  outer loop
   vertex -23.9507    5.114 0.769006
   vertex -24.5507    5.114 0.269006
   vertex -23.9507    5.114 0.269006
  endloop
 endfacet
 facet normal 0.000360836       -1        0
  outer loop
   vertex -23.9507    5.114 0.269006
   vertex -21.2007  5.11499 0.769006
   vertex -23.9507    5.114 0.769006
  endloop
 endfacet
 facet normal 0.000361529       -1 -3.8147e-06
  outer loop
   vertex -21.2007  5.11499 0.769006
   vertex -23.9507    5.114 0.269006
   vertex -21.2007    5.115 0.269006
  endloop
 endfacet
 facet normal        0       -1        0
  outer loop
   vertex -23.9507    5.114 0.769006
   vertex -23.9507    5.114  2.99401
   vertex -24.5507    5.114  2.99401
  endloop
 endfacet
 facet normal       -1        0        0
  outer loop
   vertex -24.5507    5.114 0.269006
   vertex -24.5507    5.114  2.99401
   vertex -24.5507   15.625  2.99401
  endloop
 endfacet
 facet normal       -1        0       -0
  outer loop
   vertex -24.5507   15.625  2.99401
   vertex -24.5507   15.625 0.269006
   vertex -24.5507    5.114 0.269006
  endloop
 endfacet
 facet normal        0        0        1
  outer loop
   vertex -23.9507   15.025  2.99401
   vertex -21.2007   15.025  2.99401
   vertex -21.2007   15.625  2.99401
  endloop
 endfacet
 facet normal        0        0        1
  outer loop
   vertex -24.5507   15.625  2.99401
   vertex -24.5507    5.114  2.99401
   vertex -23.9507   15.025  2.99401
  endloop
 endfacet
 facet normal        0       -0        1
  outer loop
   vertex -23.9507    5.114  2.99401
   vertex -23.9507   15.025  2.99401
   vertex -24.5507    5.114  2.99401
  endloop
 endfacet
 facet normal        0        0        1
  outer loop
   vertex -21.2007   15.625  2.99401
   vertex -24.5507   15.625  2.99401
   vertex -23.9507   15.025  2.99401
  endloop
 endfacet
endsolid 1 written by HOOPS Exchange
